<svg width="24" height="24" viewBox="0 0 24 24" fill="none" xmlns="http://www.w3.org/2000/svg">
<path fill-rule="evenodd" clip-rule="evenodd" d="M18.4376 4H6.06267C5.49903 4 5.03611 4.47247 5.03611 5.03576V7.09809H6.58037C6.86237 7.09809 7.09842 7.32531 7.09842 7.61578C7.09842 7.89778 6.86237 8.12465 6.58037 8.12465H4.51805C4.23641 8.12465 4 8.36106 4 8.64271C4 8.92435 4.23641 9.16075 4.51805 9.16075H5.03611V11.2231H6.58037C6.86237 11.2231 7.09842 11.4503 7.09842 11.7411C7.09842 12.0228 6.86237 12.2496 6.58037 12.2496H4.51805C4.23641 12.2496 4 12.4861 4 12.7677C4 13.0493 4.23641 13.2854 4.51805 13.2854H5.03611V15.3481H6.58037C6.86237 15.3481 7.09842 15.5749 7.09842 15.8661C7.09842 16.1478 6.86237 16.3746 6.58037 16.3746H4.51805C4.23641 16.3746 4 16.611 4 16.8927C4 17.1743 4.23641 17.4104 4.51805 17.4104H5.03611V19.4731C5.03611 20.036 5.49903 20.4996 6.06267 20.4996H18.4376C19.0101 20.4996 19.473 20.036 19.473 19.4731V5.03576C19.473 4.47247 19.0101 4 18.4376 4" fill="#63C5EC"/>
<path fill-rule="evenodd" clip-rule="evenodd" d="M16.075 4V11.5955L14.2583 9.45123L12.4953 11.5955V4H16.075Z" fill="#FABA11"/>
<path fill-rule="evenodd" clip-rule="evenodd" d="M6.5804 15.3481H5.03613V16.3746H6.5804C6.86239 16.3746 7.09845 16.1478 7.09845 15.8661C7.09845 15.5749 6.86239 15.3481 6.5804 15.3481Z" fill="#4D4E51"/>
<path fill-rule="evenodd" clip-rule="evenodd" d="M5.03613 12.2496H6.5804C6.86239 12.2496 7.09845 12.0227 7.09845 11.7411C7.09845 11.4503 6.86239 11.2231 6.5804 11.2231H5.03613V12.2496Z" fill="#4D4E51"/>
<path fill-rule="evenodd" clip-rule="evenodd" d="M5.03613 8.12463H6.5804C6.86239 8.12463 7.09845 7.89777 7.09845 7.61577C7.09845 7.32529 6.86239 7.09808 6.5804 7.09808H5.03613V8.12463" fill="#4D4E51"/>
</svg>
