<svg width="24" height="24" viewBox="0 0 24 24" fill="none" xmlns="http://www.w3.org/2000/svg">
<path fill-rule="evenodd" clip-rule="evenodd" d="M5 10.7001C5.13841 12.5181 6.09353 14.2051 7.68048 15.3064L7.6649 15.322L11.1851 16.7624L11.1929 16.7471C13.0953 17.0782 14.9594 16.5467 16.3307 15.3525L5 10.7001ZM5.47695 7.68052L5.44639 7.7656C5.17676 8.44328 5.05363 9.12875 5.00749 9.78366L16.97 14.6904C24.2723 6.24007 9.85253 -2.70283 5.47695 7.68052Z" fill="#F1443B"/>
<path fill-rule="evenodd" clip-rule="evenodd" d="M7.99625 7.07986C7.74939 7.68055 7.04864 7.97326 6.44016 7.72699C5.83138 7.48042 5.54648 6.77967 5.79305 6.1709C6.03931 5.56242 6.74066 5.2772 7.34914 5.52377C7.94983 5.77813 8.24282 6.47139 7.99625 7.07986Z" fill="white"/>
<path fill-rule="evenodd" clip-rule="evenodd" d="M14.22 3.45173L10.8076 12.1636L16.97 14.6904C21.1143 9.89122 18.2642 4.93831 14.22 3.45173Z" fill="#DF3C32"/>
<path fill-rule="evenodd" clip-rule="evenodd" d="M16.3307 15.3525L10.4997 12.9573L9.31329 15.9922L11.1852 16.7624L11.1929 16.7471C13.0954 17.0782 14.9595 16.5467 16.3307 15.3525" fill="#DF3C32"/>
<path fill-rule="evenodd" clip-rule="evenodd" d="M9.31323 15.9844L7.67264 15.3064L5.89335 19.0501C5.63899 19.6742 5.78519 20.2132 6.26275 20.4058L7.39522 20.8759L9.31323 15.9844" fill="#BF651D"/>
<path fill-rule="evenodd" clip-rule="evenodd" d="M9.31333 15.9844L7.39532 20.8759L8.62006 21.3765C9.09013 21.5691 9.57547 21.2842 9.82953 20.6677L11.193 16.7547L9.31333 15.9844" fill="#9E581D"/>
</svg>
