<svg width="24" height="24" viewBox="0 0 24 24" fill="none" xmlns="http://www.w3.org/2000/svg">
<path d="M15.0108 13.5044C15.3263 13.1557 15.6252 12.8074 15.9157 12.4668C15.6252 12.1269 15.3263 11.7779 15.0108 11.4292C15.0192 11.7695 15.0276 12.1185 15.0276 12.4668C15.0276 12.8155 15.0192 13.1641 15.0108 13.5044ZM9.38325 18.3601C10.1138 17.8868 10.8857 17.3225 11.6825 16.6749C10.9771 16.0858 10.2633 15.4382 9.55758 14.7331C9.30867 14.4839 9.06818 14.235 8.83542 13.9857C8.90999 15.6044 9.1011 17.0904 9.38325 18.3601V18.3601ZM8.63655 11.4292C8.32082 11.7779 8.02221 12.1269 7.73166 12.4668C8.02221 12.8074 8.32082 13.1557 8.63655 13.5044C8.62815 13.1641 8.61976 12.8155 8.61976 12.4668C8.61976 12.1185 8.62815 11.7695 8.63655 11.4292ZM11.8239 8.37495C11.1181 8.96411 10.396 9.61978 9.69027 10.3339C9.39165 10.6244 9.1011 10.923 8.82701 11.222C8.81055 11.6288 8.80215 12.0436 8.80215 12.4668C8.80215 12.8904 8.81055 13.2972 8.82701 13.7036C9.1011 14.0025 9.39165 14.3015 9.69027 14.6001C10.396 15.3142 11.1181 15.9699 11.8239 16.559C12.5289 15.9699 13.2514 15.3142 13.9568 14.6001C14.2557 14.3015 14.546 14.0025 14.8201 13.7036C14.8368 13.2972 14.8449 12.8904 14.8449 12.4668C14.8449 12.0436 14.8368 11.6288 14.8201 11.222C14.546 10.923 14.2557 10.6244 13.9568 10.3339C13.2514 9.61978 12.5289 8.96411 11.8239 8.37495ZM14.2638 6.57355C13.5336 7.03842 12.7533 7.61112 11.9646 8.25872C12.6703 8.84789 13.3841 9.49517 14.0895 10.2009C14.3387 10.4498 14.5708 10.699 14.8116 10.9479C14.7368 9.32955 14.546 7.84389 14.2638 6.57355V6.57355ZM11.8239 8.14251C12.6455 7.46198 13.4587 6.86442 14.2225 6.38308C14.1308 6.00117 14.0398 5.64444 13.9319 5.31224C13.3841 3.51085 12.6371 2.3987 11.8239 2.3987C11.01 2.3987 10.2633 3.51085 9.70706 5.31224C9.6073 5.64444 9.50786 6.00117 9.4249 6.38308C10.1884 6.86442 10.9932 7.46198 11.8239 8.14251V8.14251ZM8.83542 10.9479C9.06818 10.699 9.30867 10.4498 9.55758 10.2009C10.2633 9.49517 10.9771 8.84789 11.6825 8.25872C10.8857 7.61112 10.1138 7.03842 9.38325 6.57355C9.1011 7.84389 8.90999 9.32955 8.83542 10.9479V10.9479ZM7.61544 12.3257C7.93924 11.9358 8.27917 11.5458 8.64462 11.1471C8.71112 9.41252 8.9187 7.81903 9.217 6.46572C8.88513 6.25846 8.57005 6.07542 8.25432 5.9098C6.59432 5.02977 5.28298 4.77247 4.70189 5.3455C4.12918 5.92659 4.3868 7.23793 5.26651 8.89793C5.82243 9.94358 6.6195 11.1138 7.61544 12.3257V12.3257ZM11.8239 16.7915C10.9932 17.472 10.1884 18.0615 9.4249 18.5509C9.50786 18.9328 9.6073 19.2899 9.70706 19.6217C10.2633 21.4231 11.01 22.5353 11.8239 22.5353C12.6371 22.5353 13.3841 21.4231 13.9319 19.6217C14.0398 19.2899 14.1308 18.9328 14.2225 18.5509C13.4587 18.0615 12.6455 17.472 11.8239 16.7915V16.7915ZM14.8116 13.9857C14.5708 14.235 14.3387 14.4839 14.0895 14.7331C13.3841 15.4382 12.6703 16.0858 11.9646 16.6749C12.7533 17.3225 13.5336 17.8868 14.2638 18.3601C14.546 17.0904 14.7368 15.6044 14.8116 13.9857V13.9857ZM16.032 12.6082C15.7085 12.9982 15.3595 13.3885 15.0024 13.7785C14.9279 15.5134 14.7287 17.1153 14.4298 18.4599C14.7616 18.6674 15.0773 18.8579 15.3924 19.0242C17.0527 19.9039 18.3641 20.1612 18.9452 19.5888C19.5182 19.0077 19.2609 17.6964 18.3809 16.036C17.825 14.9904 17.0282 13.8201 16.032 12.6082ZM9.217 18.4599C8.9187 17.1153 8.71112 15.5134 8.64462 13.7785C8.27917 13.3885 7.93924 12.9982 7.61544 12.6082C6.6195 13.8201 5.82243 14.9904 5.26651 16.036C4.3868 17.6964 4.12918 19.0077 4.70189 19.5888C5.28298 20.1612 6.59432 19.9039 8.25432 19.0242C8.57005 18.8579 8.88513 18.6674 9.217 18.4599ZM14.4298 6.46572C14.7287 7.81903 14.9279 9.41252 15.0024 11.1471C15.3595 11.5458 15.7085 11.9358 16.032 12.3257C17.0282 11.1138 17.825 9.94358 18.3809 8.89793C19.2609 7.23793 19.5182 5.92659 18.9452 5.3455C18.3641 4.77247 17.0527 5.02977 15.3924 5.9098C15.0773 6.07542 14.7616 6.25846 14.4298 6.46572V6.46572ZM11.8239 2.21598C12.7284 2.21598 13.5336 3.37785 14.1063 5.25414C14.206 5.57729 14.2971 5.91788 14.3884 6.28332C14.7038 6.08414 15.0108 5.90981 15.3014 5.75194C17.0363 4.83058 18.4309 4.58168 19.0698 5.22057C19.709 5.85977 19.4601 7.2544 18.5387 8.98897C17.9741 10.043 17.1606 11.2388 16.1482 12.4668C17.1606 13.6955 17.9741 14.8903 18.5387 15.945C19.4601 17.6796 19.709 19.0739 19.0698 19.7131C18.4309 20.3523 17.0363 20.1034 15.3014 19.1817C15.0108 19.0242 14.7038 18.8498 14.3884 18.651C14.2971 19.0158 14.206 19.356 14.1063 19.6798C13.5336 21.5558 12.7284 22.718 11.8239 22.718C10.919 22.718 10.1138 21.5558 9.53273 19.6798C9.43298 19.356 9.34193 19.0158 9.25864 18.651C8.94356 18.8498 8.63655 19.0242 8.34568 19.1817C6.61079 20.1034 5.21681 20.3523 4.57728 19.7131C3.9384 19.0739 4.18697 17.6796 5.10866 15.945C5.67297 14.8903 6.48649 13.6955 7.49921 12.4668C6.48649 11.2388 5.67297 10.043 5.10866 8.98897C4.18697 7.2544 3.9384 5.85977 4.57728 5.22057C5.21681 4.58168 6.61079 4.83058 8.34568 5.75194C8.63655 5.90981 8.94356 6.08414 9.25864 6.28332C9.34193 5.91788 9.43298 5.57729 9.53273 5.25414C10.1138 3.37785 10.919 2.21598 11.8239 2.21598Z" fill="#E33631"/>
<path d="M15.2433 12.9152L15.3098 12.8407C15.4179 12.716 15.5257 12.5914 15.6252 12.4668C15.5257 12.3425 15.4179 12.2179 15.3014 12.0933L15.2433 12.0187C15.2433 12.1931 15.2433 12.3425 15.2433 12.4668C15.2433 12.6163 15.2433 12.7577 15.2433 12.9152V12.9152ZM9.53272 18.0034C9.80648 17.8206 10.097 17.6131 10.3876 17.4058C10.703 17.173 11.0184 16.9325 11.3338 16.6749C11.0516 16.426 10.7614 16.169 10.4621 15.895C10.1051 15.5715 9.75675 15.2393 9.4081 14.8903H9.40003V14.8822C9.30866 14.7912 9.20052 14.6834 9.09302 14.5668C9.12595 15.1479 9.18406 15.7122 9.25056 16.252C9.32513 16.866 9.4165 17.4555 9.53272 18.0034ZM8.40377 12.0187L8.3376 12.0933C8.22945 12.2179 8.12163 12.3425 8.02219 12.4668C8.12163 12.5914 8.22945 12.716 8.3376 12.8407L8.40377 12.9152C8.40377 12.7328 8.40377 12.5834 8.40377 12.4668C8.40377 12.3425 8.40377 12.1931 8.40377 12.0187ZM11.8238 8.66516C11.5168 8.92278 11.2011 9.19654 10.8941 9.4787C10.5454 9.7941 10.1971 10.1347 9.84004 10.483C9.69896 10.6328 9.5495 10.7736 9.4081 10.923C9.28381 11.0557 9.16726 11.1807 9.04297 11.313C9.03458 11.4957 9.02652 11.6701 9.02652 11.8447C9.02652 12.0187 9.01811 12.2263 9.01811 12.4668C9.01811 12.7073 9.02652 12.9152 9.02652 13.0815C9.02652 13.2636 9.03458 13.4382 9.04297 13.6206C9.16726 13.7536 9.28381 13.8779 9.4081 14.0109C9.5495 14.152 9.69025 14.3015 9.84004 14.4422V14.4506C10.1971 14.7993 10.5454 15.1399 10.8941 15.4549C11.2011 15.7371 11.5168 16.0112 11.8238 16.2685C12.1309 16.0112 12.4379 15.7371 12.7533 15.4549C13.0935 15.1399 13.4419 14.8073 13.7989 14.4506L13.8073 14.4422C13.9652 14.2847 14.1063 14.1352 14.2389 14.0025C14.3555 13.8779 14.4798 13.7452 14.6044 13.6206C14.6125 13.4382 14.6125 13.2636 14.6209 13.0896C14.6209 12.9152 14.6209 12.7073 14.6209 12.4668C14.6209 12.2263 14.6209 12.0187 14.6209 11.8447C14.6125 11.6701 14.6125 11.4957 14.6044 11.313C14.4798 11.1807 14.3555 11.0557 14.2389 10.923C14.1063 10.7904 13.9652 10.649 13.8073 10.483H13.7989C13.4419 10.126 13.0935 9.78603 12.7533 9.4787C12.4379 9.19654 12.1309 8.92278 11.8238 8.66516V8.66516ZM14.1143 6.93059C13.8406 7.11299 13.5497 7.3125 13.2595 7.52815C12.9441 7.76059 12.6287 8.0011 12.3133 8.25872C12.5954 8.50794 12.886 8.76524 13.1849 9.03093C13.542 9.3628 13.8987 9.69467 14.2389 10.043C14.3468 10.1508 14.4546 10.259 14.5547 10.3668C14.5214 9.78603 14.463 9.22172 14.3965 8.68195C14.3219 8.05921 14.2225 7.47844 14.1143 6.93059V6.93059ZM11.8238 7.85195C12.189 7.55333 12.5538 7.27925 12.9108 7.01356C13.2679 6.74787 13.6249 6.50704 13.9736 6.28332C13.94 6.14224 13.9071 6.01762 13.8735 5.88462C13.8238 5.71061 13.7741 5.53628 13.7244 5.37035C13.4506 4.48192 13.1349 3.76846 12.7781 3.2784C12.4711 2.85517 12.1473 2.62274 11.8238 2.62274C11.5 2.62274 11.1762 2.85517 10.8692 3.2784C10.5122 3.76846 10.1884 4.48192 9.92302 5.37035C9.8733 5.52789 9.82326 5.70222 9.77322 5.88462C9.74029 6.01762 9.70705 6.15031 9.67412 6.28332C10.0141 6.50704 10.3711 6.74787 10.7362 7.01356C11.093 7.27925 11.4584 7.55333 11.8238 7.85195V7.85195ZM9.09302 10.3668C9.20052 10.2428 9.30866 10.1428 9.40003 10.043C9.74029 9.70306 10.097 9.3628 10.4621 9.03093C10.7614 8.76524 11.0516 8.50794 11.3338 8.25872C11.0184 8.0011 10.703 7.76059 10.3876 7.52815C10.097 7.3125 9.80648 7.11299 9.53272 6.93059C9.4165 7.47844 9.32513 8.05921 9.25056 8.68195C9.17599 9.22172 9.12595 9.78603 9.09302 10.3668V10.3668ZM7.61542 11.9774C7.73164 11.8447 7.83946 11.7198 7.95536 11.5871C8.09676 11.4292 8.2543 11.2549 8.42863 11.0641C8.46221 10.2257 8.52839 9.42091 8.61975 8.66516C8.71111 7.92685 8.827 7.22953 8.9684 6.57354C8.85218 6.49897 8.73597 6.43247 8.61975 6.36629C8.4622 6.27525 8.30434 6.18324 8.15454 6.10899C7.32454 5.66929 6.59431 5.38681 6.00482 5.29545C5.48183 5.21248 5.09186 5.27027 4.85974 5.50304C4.62731 5.73547 4.56919 6.12545 4.65216 6.64844C4.74352 7.23793 5.02567 7.96817 5.46537 8.79816C5.73945 9.31276 6.07132 9.86868 6.46162 10.4333C6.81028 10.9398 7.19187 11.4544 7.61542 11.9774V11.9774ZM11.8238 17.0736C11.4584 17.3726 11.093 17.6547 10.7362 17.912C10.3711 18.1858 10.0141 18.4266 9.67412 18.651C9.70705 18.7837 9.74029 18.9163 9.77322 19.049C9.82326 19.2233 9.8733 19.3977 9.92302 19.5555C10.1884 20.4517 10.5122 21.1658 10.8692 21.6552C11.1762 22.0788 11.5 22.3109 11.8238 22.3109C12.1473 22.3109 12.4711 22.0788 12.7781 21.6552C13.1349 21.1658 13.4506 20.4517 13.7244 19.5555C13.7741 19.3977 13.8238 19.2314 13.8735 19.049C13.9071 18.9163 13.94 18.7837 13.9736 18.651C13.6249 18.4266 13.2679 18.1858 12.9108 17.912C12.5538 17.6547 12.189 17.3726 11.8238 17.0736V17.0736ZM14.5547 14.5668C14.4381 14.6834 14.3387 14.7912 14.2389 14.8822V14.8903C13.8987 15.2312 13.5497 15.5631 13.1849 15.895C12.886 16.169 12.5954 16.426 12.3049 16.6749C12.6287 16.9325 12.9441 17.173 13.2595 17.4058C13.5497 17.6131 13.8406 17.8206 14.1143 18.0034C14.2225 17.4555 14.3219 16.866 14.3965 16.252C14.463 15.7122 14.5214 15.1479 14.5547 14.5668V14.5668ZM16.0319 12.9566C15.9157 13.0815 15.8079 13.2142 15.6914 13.3469C15.5506 13.5044 15.3924 13.6787 15.2184 13.8695C15.1768 14.7082 15.1106 15.5134 15.0192 16.2601C14.9363 17.0071 14.8116 17.7048 14.6706 18.3601C14.7952 18.435 14.9114 18.5012 15.0276 18.5677C15.1855 18.659 15.3427 18.7504 15.4925 18.825C16.3141 19.265 17.0527 19.5471 17.6422 19.6385C18.1649 19.7215 18.5552 19.655 18.7873 19.4309C19.0117 19.1985 19.0779 18.8085 18.9952 18.2855C18.9039 17.6964 18.6214 16.9658 18.1814 16.1358C17.9076 15.6128 17.5673 15.065 17.1773 14.4923C16.8371 13.9945 16.4468 13.4795 16.0319 12.9566ZM8.9684 18.3601C8.827 17.7048 8.71111 17.0071 8.61975 16.2685C8.52839 15.5134 8.46221 14.7082 8.42863 13.8695C8.26238 13.6955 8.10515 13.5128 7.95536 13.3469C7.83946 13.2142 7.73164 13.0815 7.61542 12.9566C7.19187 13.4795 6.81028 13.9945 6.46162 14.4923C6.07132 15.065 5.73945 15.6128 5.46537 16.1358C5.02567 16.9658 4.74352 17.6964 4.65216 18.2855C4.56919 18.8085 4.62731 19.1985 4.85974 19.4309C5.09186 19.655 5.48183 19.7215 6.00482 19.6385C6.59431 19.5471 7.32454 19.265 8.15454 18.825C8.31273 18.742 8.47028 18.659 8.61975 18.5677C8.73597 18.5012 8.85218 18.435 8.9684 18.3601V18.3601ZM14.6706 6.57354C14.8116 7.22953 14.9363 7.92685 15.0192 8.66516C15.1106 9.42091 15.1768 10.2257 15.2184 11.0641C15.3924 11.2549 15.5506 11.4292 15.6914 11.5871C15.8079 11.7198 15.9157 11.8447 16.0319 11.9774C16.4468 11.4544 16.8371 10.9398 17.1773 10.4333C17.5673 9.86868 17.9076 9.31276 18.1814 8.79816C18.6214 7.96817 18.9039 7.23793 18.9952 6.64844C19.0779 6.12545 19.0117 5.73547 18.7873 5.50304C18.5552 5.27027 18.1649 5.21248 17.6422 5.29545C17.0527 5.38681 16.3141 5.66929 15.4925 6.10899C15.3346 6.19196 15.1768 6.27525 15.0276 6.36629C14.9114 6.43247 14.7952 6.49897 14.6706 6.57354V6.57354ZM11.8238 2C12.3381 2 12.8198 2.30766 13.2427 2.87196C13.6498 3.41981 14.0149 4.20816 14.3219 5.1957C14.3716 5.36196 14.4217 5.53628 14.463 5.69383C14.4878 5.77712 14.5043 5.85976 14.5298 5.93466C14.596 5.89301 14.6706 5.85137 14.7367 5.81005H14.7455C14.9114 5.71062 15.0605 5.62765 15.2019 5.55243C16.1065 5.07948 16.9281 4.77247 17.6006 4.67272C18.2979 4.58168 18.8622 4.69789 19.2273 5.06334C19.5928 5.42846 19.709 5.98438 19.6092 6.68137C19.5182 7.36222 19.2112 8.18414 18.7292 9.08871C18.447 9.62816 18.0903 10.2009 17.6836 10.7984C17.3104 11.3379 16.8952 11.8944 16.4303 12.4668C16.8952 13.0311 17.3104 13.5954 17.6836 14.1352C18.0903 14.7331 18.447 15.3055 18.7292 15.8452C19.2112 16.7498 19.5182 17.5717 19.6092 18.2439C19.709 18.9412 19.5928 19.5055 19.2273 19.8706C18.8622 20.2361 18.2979 20.3523 17.6006 20.2525C16.9281 20.1612 16.1065 19.8542 15.2019 19.3728C15.0605 19.3066 14.9114 19.215 14.7367 19.1236C14.6706 19.0739 14.596 19.0325 14.5298 18.9909C14.5043 19.0739 14.4878 19.1568 14.463 19.2314C14.4217 19.3977 14.3716 19.5639 14.3219 19.7379C14.0149 20.7174 13.6498 21.5145 13.2427 22.0623C12.8198 22.6263 12.3381 22.9333 11.8238 22.9333C11.3089 22.9333 10.8276 22.6263 10.404 22.0623C9.9892 21.5145 9.62408 20.7174 9.32514 19.7379C9.27542 19.572 9.2257 19.4057 9.18405 19.2314C9.1592 19.1568 9.14241 19.0739 9.11755 18.9909C9.04298 19.0409 8.97648 19.0823 8.90191 19.1236C8.73597 19.215 8.57843 19.3066 8.44542 19.3728C7.54053 19.8542 6.71892 20.1612 6.03839 20.2525C5.34108 20.3523 4.78483 20.2361 4.41971 19.8706C4.05459 19.5055 3.93837 18.9412 4.02973 18.2439C4.12916 17.5717 4.42811 16.7498 4.90978 15.8452C5.2 15.3055 5.54866 14.7331 5.9635 14.1352C6.32862 13.5954 6.75217 13.0311 7.20865 12.4668C6.75217 11.8944 6.32862 11.3379 5.9635 10.7984C5.54866 10.2009 5.2 9.62816 4.90978 9.08871C4.42811 8.18414 4.12916 7.36222 4.02973 6.68137C3.93837 5.98438 4.05459 5.42846 4.41971 5.06334C4.78483 4.69789 5.34108 4.58168 6.03839 4.67272C6.71892 4.77247 7.54053 5.07948 8.44542 5.55243C8.57843 5.62765 8.73597 5.71869 8.90191 5.81005C8.97648 5.85137 9.04298 5.89301 9.11755 5.93466C9.14241 5.85976 9.1592 5.77712 9.18405 5.69383C9.2257 5.52789 9.27542 5.36196 9.32514 5.1957C9.62408 4.20816 9.9892 3.41981 10.404 2.87196C10.8276 2.30766 11.3089 2 11.8238 2" fill="#A0A9B6"/>
<path fill-rule="evenodd" clip-rule="evenodd" d="M11.8238 11.006C12.6286 11.006 13.2846 11.6617 13.2846 12.4668C13.2846 13.272 12.6286 13.9279 11.8238 13.9279C11.0184 13.9279 10.3627 13.272 10.3627 12.4668C10.3627 11.6617 11.0184 11.006 11.8238 11.006Z" fill="#DD3C25"/>
<path fill-rule="evenodd" clip-rule="evenodd" d="M11.3502 11.6368C11.2508 11.5622 11.0597 11.6617 10.9189 11.8609C10.7779 12.0604 10.7443 12.276 10.8444 12.3425C10.9438 12.4171 11.1349 12.3093 11.2757 12.1185C11.4171 11.919 11.45 11.7033 11.3502 11.6368Z" fill="#EDECEC"/>
</svg>
