<svg width="24" height="24" viewBox="0 0 24 24" fill="none" xmlns="http://www.w3.org/2000/svg">
<path fill-rule="evenodd" clip-rule="evenodd" d="M13.1844 7.31538C13.1844 6.40147 12.4377 5.66107 11.5236 5.66107C10.6095 5.66107 9.8626 6.40147 9.8626 7.31538C9.30902 7.31538 8.75541 7.31538 8.20183 7.31538C8.20183 5.4873 9.68891 3.99999 11.5236 3.99999C13.3584 3.99999 14.8455 5.4873 14.8455 7.31538C14.2919 7.31538 14.8455 7.31538 13.1844 7.31538Z" fill="#E83736"/>
<path fill-rule="evenodd" clip-rule="evenodd" d="M3 7.16741H20.0473V17.6802C20.0473 18.4078 19.4549 19 18.7275 19H4.31962C3.59222 19 3 18.4078 3 17.6802V7.16741Z" fill="#E83736"/>
<path fill-rule="evenodd" clip-rule="evenodd" d="M3 7.1674H20.0473V10.6373C20.0473 12.5492 18.4891 14.1139 16.5771 14.1139H6.46993C4.55799 14.1139 3 12.5492 3 10.6373V7.1674Z" fill="#5FC3ED"/>
<path fill-rule="evenodd" clip-rule="evenodd" d="M7.71884 12.2468H6.45068C6.2704 12.2468 6.11578 12.3434 6.03869 12.4914L3 9.92268V11.1586L5.97424 13.676V14.7319C5.97424 14.9893 6.18669 15.2019 6.45068 15.2019H7.71884C7.97646 15.2019 8.18882 14.9893 8.18882 14.7319V13.9592H14.8262V14.7319C14.8262 14.9893 15.0388 15.2019 15.2962 15.2019H16.5644C16.8283 15.2019 17.0406 14.9893 17.0406 14.7319V13.676L20.0473 11.1265V9.89688L16.9763 12.4914C16.8991 12.3434 16.7447 12.2468 16.5644 12.2468H15.2962C15.0388 12.2468 14.8262 12.4591 14.8262 12.7168V13.0192H8.18882V12.7168C8.18882 12.4591 7.97646 12.2468 7.71884 12.2468" fill="#E83736"/>
<path fill-rule="evenodd" clip-rule="evenodd" d="M7.71884 12.2468H6.45068C6.2704 12.2468 6.11578 12.3434 6.03869 12.4914L3 9.92267V10.6373V11.1974L5.97424 13.676V14.0754C6.13514 14.1009 6.3026 14.1139 6.46993 14.1139H8.18882V13.9592H14.8262V14.1139H16.5771C16.7316 14.1139 16.8864 14.1009 17.0406 14.0816V13.676L20.0085 11.1651C20.0343 10.9913 20.0473 10.8176 20.0473 10.6373V9.89688L16.9763 12.4914C16.8991 12.3434 16.7447 12.2468 16.5644 12.2468H15.2962C15.0388 12.2468 14.8262 12.4591 14.8262 12.7168V13.0192H8.18882V12.7168C8.18882 12.4591 7.97646 12.2468 7.71884 12.2468" fill="#EAA311"/>
<path fill-rule="evenodd" clip-rule="evenodd" d="M8.2082 13.0192H8.18884V12.7168C8.18884 12.4591 7.97649 12.2468 7.71886 12.2468H6.4507C6.27042 12.2468 6.1158 12.3434 6.03871 12.4914L6.00636 12.4656L5.97426 13.7338V14.0754V14.7319C5.97426 14.9893 6.18671 15.2019 6.4507 15.2019H7.71886C7.97649 15.2019 8.18884 14.9893 8.18884 14.7319V14.1139V13.9592H14.8262V14.1139H14.8648H16.5772C16.7317 14.1139 16.8864 14.1009 17.0406 14.0816V13.676L20.0085 11.1651C20.0343 10.9913 20.0473 10.8176 20.0473 10.6373V9.89688L16.9958 12.4786L16.9763 12.4914C16.8992 12.3434 16.7447 12.2468 16.5644 12.2468H15.2962C15.0388 12.2468 14.8262 12.4591 14.8262 12.7168V13.0192H8.2082" fill="#60779B"/>
<path fill-rule="evenodd" clip-rule="evenodd" d="M14.8262 14.1139V14.7319C14.8262 14.9893 15.0388 15.2019 15.2962 15.2019H16.5644C16.8283 15.2019 17.0406 14.9893 17.0406 14.7319V14.0816V13.676L20.0473 11.1651C20.0473 11.0044 20.0473 10.8176 20.0473 10.6373V9.89688L16.9958 12.4786L16.9763 12.4914C16.8992 12.3434 16.7447 12.2468 16.5644 12.2468H15.2962C15.0388 12.2468 14.8262 12.4591 14.8262 12.7168V13.0192H8.20818H8.18883V12.7168C8.18883 12.4591 7.97647 12.2468 7.71885 12.2468H6.45069C6.27041 12.2468 6.11579 12.3434 6.0387 12.4914L5.93561 12.4013L5.9099 13.6695L5.97425 14.0754V14.7319C5.97425 14.9893 6.1867 15.2019 6.45069 15.2019H7.71885C7.97647 15.2019 8.18883 14.9893 8.18883 14.7319V14.1139V13.9592H14.8262V14.1139" fill="#EAA311"/>
<path fill-rule="evenodd" clip-rule="evenodd" d="M5.90989 13.6179L3 11.1974C3.13508 12.7876 4.40991 13.9334 5.97424 14.0754L5.90989 13.6695V13.6179" fill="#E83736"/>
<path fill-rule="evenodd" clip-rule="evenodd" d="M14.8262 13.9592H8.18884V14.1715H14.8262V13.9592Z" fill="#E83736"/>
<path fill-rule="evenodd" clip-rule="evenodd" d="M20.015 11.1911L17.0406 13.676V14.0816C17.6846 13.9915 18.3346 13.7919 18.8176 13.3991C19.4869 12.8582 19.8863 12.0342 20.015 11.1911Z" fill="#E83736"/>
</svg>
