<svg width="24" height="24" viewBox="0 0 24 24" fill="none" xmlns="http://www.w3.org/2000/svg">
<path fill-rule="evenodd" clip-rule="evenodd" d="M9.76925 18.1084L12.0786 18.7489C12.1157 18.7565 12.1383 18.7936 12.1232 18.8309L12.0711 18.9874C12.0638 19.0172 12.0264 19.0395 11.9894 19.0323L9.67972 18.3917C9.64264 18.3839 9.62033 18.3468 9.6351 18.3091L9.68754 18.153C9.69479 18.1234 9.73216 18.1011 9.76925 18.1084Z" fill="#A68D6B"/>
<path fill-rule="evenodd" clip-rule="evenodd" d="M14.1269 6.7934C14.3654 6.07055 14.9836 6.44312 15.4231 6.8157C19.5502 10.3019 17.8814 17.3858 13.2404 19.0842L12.1455 19.8812L11.974 18.1084C12.5106 16.9388 12.4509 17.5052 12.9649 16.3504C14.775 17.1176 15.5422 14.7416 15.1847 12.8123C14.8275 10.8755 13.1436 11.8884 12.831 11.1215C12.7044 10.8156 13.9409 7.35198 14.1269 6.7934" fill="#8D6B41"/>
<path fill-rule="evenodd" clip-rule="evenodd" d="M12.9649 16.3504C13.3227 16.3504 13.6428 16.5442 13.8143 16.8272L16.1906 20.7527H11.974V17.3041C11.974 16.7826 12.4211 16.3504 12.9649 16.3504" fill="#775D3C"/>
<path fill-rule="evenodd" clip-rule="evenodd" d="M6.2312 20.6038H16.8089C16.9352 20.6038 17.0398 20.7081 17.0398 20.8347V21.222C17.0398 21.3486 16.9201 21.6094 16.7938 21.6094H6.21613C6.09705 21.6094 6 21.3486 6 21.222V20.8347C6 20.7081 6.1043 20.6038 6.2312 20.6038" fill="#100F0D"/>
<path fill-rule="evenodd" clip-rule="evenodd" d="M14.3358 2.14515L15.1551 2.4059C15.2742 2.44327 15.3411 2.56988 15.3038 2.68142L13.7399 7.65764C13.7025 7.77643 13.5759 7.8364 13.464 7.80627L12.6372 7.54581C12.5254 7.50844 12.4584 7.38183 12.4955 7.27029L14.06 2.29435C14.0971 2.17499 14.2165 2.10806 14.3358 2.14515Z" fill="#231F1D"/>
<path fill-rule="evenodd" clip-rule="evenodd" d="M13.2627 4.48432L14.7452 4.95338C14.9538 5.02059 15.0731 5.24397 15.0059 5.45228L12.7116 12.7599C12.6447 12.9685 12.421 13.0878 12.2124 13.0209L10.7302 12.5516C10.5219 12.4844 10.4023 12.261 10.4695 12.0524L12.7638 4.74507C12.831 4.53618 13.0544 4.41682 13.2627 4.48432" fill="#236E54"/>
<path fill-rule="evenodd" clip-rule="evenodd" d="M9.94078 17.5573C10.7303 17.706 11.3708 18.153 11.3708 18.5551C11.3784 18.9579 10.7378 19.1586 9.94802 19.0097C9.15854 18.8608 8.51044 18.4141 8.51044 18.0113C8.51044 17.6092 9.14376 17.4081 9.94078 17.5573Z" fill="#A68D6B"/>
<path fill-rule="evenodd" clip-rule="evenodd" d="M13.1514 11.3594L14.7081 6.39879L15.0059 5.45228C15.0732 5.24397 14.9538 5.02059 14.7452 4.95338L14.6038 4.90876L13.3595 4.51387L13.2627 4.48432C13.0544 4.41682 12.831 4.53618 12.7638 4.74507L10.4695 12.0524C10.4174 12.2161 10.477 12.3948 10.6187 12.4916C10.6187 12.4916 10.6187 12.4916 10.6187 12.4994C10.6483 12.5217 10.6856 12.5368 10.7303 12.5516L10.8493 12.5886L12.0934 12.9835L12.2125 13.0209C12.4211 13.0878 12.6447 12.9685 12.7116 12.7599L13.1514 11.3594" fill="#775D3C"/>
<path fill-rule="evenodd" clip-rule="evenodd" d="M13.3522 11.6726C13.8662 11.6726 14.2909 11.2478 14.2909 10.7266C14.2909 10.2051 13.8662 9.7804 13.3522 9.7804C12.831 9.7804 12.4063 10.2051 12.4063 10.7266C12.4063 11.2478 12.831 11.6726 13.3522 11.6726Z" fill="#100F0D"/>
<path fill-rule="evenodd" clip-rule="evenodd" d="M13.3522 11.0766C13.5385 11.0766 13.6952 10.9204 13.6952 10.7266C13.6952 10.54 13.5385 10.3839 13.3522 10.3839C13.1587 10.3839 13.0022 10.54 13.0022 10.7266C13.0022 10.9204 13.1587 11.0766 13.3522 11.0766Z" fill="white"/>
<path fill-rule="evenodd" clip-rule="evenodd" d="M10.626 16.8716L15.7508 15.8665L12.1009 13.9891L7.00592 14.9574L10.626 16.8716Z" fill="#100F0D"/>
<path fill-rule="evenodd" clip-rule="evenodd" d="M15.7285 16.2684L15.7508 15.8666L15.1624 15.9781L10.626 16.8716L9.50852 16.2835L7.5645 15.2553L7.00592 14.9574L6.98361 15.3671L9.50852 16.7007L10.5961 17.2743L15.7285 16.2684Z" fill="#1B1919"/>
<path fill-rule="evenodd" clip-rule="evenodd" d="M11.2963 15.2034C11.6463 15.2034 11.9369 15.3149 11.9369 15.449C11.9369 15.5832 11.6463 15.695 11.2963 15.695C10.9461 15.695 10.6633 15.5832 10.6633 15.449C10.6633 15.3149 10.9461 15.2034 11.2963 15.2034Z" fill="white"/>
<path fill-rule="evenodd" clip-rule="evenodd" d="M11.3334 15.4195C11.5646 15.4195 11.7732 15.4638 11.8995 15.5311C11.9221 15.5012 11.9369 15.4789 11.9369 15.4491C11.9369 15.3149 11.6463 15.2034 11.2963 15.2034C10.9461 15.2034 10.6633 15.3149 10.6633 15.4491C10.6633 15.4861 10.6856 15.5235 10.7227 15.5534C10.8493 15.4714 11.073 15.4195 11.3334 15.4195Z" fill="#D0D0CE"/>
<path fill-rule="evenodd" clip-rule="evenodd" d="M13.0544 17.8106C13.4791 17.8106 13.8216 17.4676 13.8216 17.0509C13.8216 16.6259 13.4791 16.291 13.0544 16.291C12.6372 16.291 12.2947 16.6259 12.2947 17.0509C12.2947 17.4676 12.6372 17.8106 13.0544 17.8106Z" fill="#100F0D"/>
<path fill-rule="evenodd" clip-rule="evenodd" d="M13.0544 17.3931C13.2482 17.3931 13.4046 17.2366 13.4046 17.0509C13.4046 16.8571 13.2482 16.7007 13.0544 16.7007C12.8681 16.7007 12.7116 16.8571 12.7116 17.0509C12.7116 17.2366 12.8681 17.3931 13.0544 17.3931Z" fill="white"/>
<path fill-rule="evenodd" clip-rule="evenodd" d="M14.8124 2.18222C15.1774 2.30912 15.4457 2.50294 15.4084 2.59971C15.3713 2.69647 15.0508 2.67416 14.6783 2.54002C14.3132 2.41313 14.0452 2.22741 14.0823 2.12283C14.1194 2.02606 14.4471 2.04837 14.8124 2.18222" fill="#CDCCCA"/>
<path d="M15.2221 2.45804C15.1178 2.38358 14.9686 2.30913 14.7901 2.24191C14.6114 2.18223 14.4471 2.14514 14.3208 2.13037C14.2165 2.12284 14.1493 2.13037 14.142 2.14514C14.1345 2.16745 14.1866 2.21236 14.2686 2.27204C14.3729 2.33868 14.5294 2.42096 14.7003 2.48035C14.8796 2.54757 15.0509 2.58465 15.1775 2.59218C15.2742 2.59972 15.3412 2.59218 15.349 2.57741C15.3562 2.56234 15.3038 2.51019 15.2221 2.45804V2.45804ZM14.8347 2.12284C15.0207 2.18976 15.1847 2.27204 15.2966 2.3465C15.4307 2.44326 15.4976 2.54003 15.4753 2.62202C15.4458 2.70372 15.3267 2.73357 15.1624 2.72603C15.0283 2.71126 14.8495 2.67417 14.6632 2.60696C14.4694 2.54003 14.3057 2.45804 14.1939 2.37605C14.06 2.28682 13.9931 2.18223 14.0229 2.10053C14.0525 2.01854 14.1643 1.9887 14.328 2.00376C14.4622 2.0113 14.6409 2.05591 14.8347 2.12284Z" fill="#231F1D"/>
</svg>
