<svg width="24" height="24" viewBox="0 0 24 24" fill="none" xmlns="http://www.w3.org/2000/svg">
<g clip-path="url(#clip0_3_1653)">
<path d="M22.4619 5H2V19.0003H22.4619V5Z" fill="#000066"/>
<path d="M2 5V6.56528L20.1743 19.0003H22.4619V17.4351L4.28765 5.00005H2L2 5ZM22.4619 5V6.56523L4.28765 19.0003H2V17.435L20.1743 5H22.4619Z" fill="white"/>
<path d="M10.5258 5V19.0003H13.9361V5H10.5258ZM2 9.66676V14.3335H22.4619V9.66676H2Z" fill="white"/>
<path d="M2 10.6001V13.4002H22.4619V10.6001H2ZM11.2079 5V19.0003H13.2541V5H11.2079Z" fill="#CC0000"/>
<path d="M2 19.0003L8.82065 14.3335H10.3457L3.5251 19.0003H2H2ZM2 5L8.82065 9.66676H7.29555L2 6.04353V5H2ZM14.1162 9.66676L20.9369 5H22.4619L15.6413 9.66676H14.1162ZM22.4619 19.0003L15.6413 14.3335H17.1664L22.4619 17.9568V19.0003Z" fill="#CC0000"/>
</g>
<defs>
<clipPath id="clip0_3_1653">
<rect x="2" y="5" width="20.4615" height="14" rx="1.07692" fill="white"/>
</clipPath>
</defs>
</svg>
