<svg width="24" height="24" viewBox="0 0 24 24" fill="none" xmlns="http://www.w3.org/2000/svg">
<path fill-rule="evenodd" clip-rule="evenodd" d="M8.68984 19.4058L16.0348 19.4438L16.1331 19.4511H16.1405H16.1481C16.2013 19.4438 16.2467 19.4211 16.277 19.3908C16.3073 19.3528 16.3299 19.3075 16.3223 19.2546V19.1637L16.4282 10.2759V10.2683C16.4282 10.2306 16.4129 10.1926 16.3902 10.1623C16.3676 10.132 16.3373 10.1094 16.2996 10.1017L16.1405 10.0488L16.0651 10.0261L16.0575 10.0414L16.0348 10.0488C15.9969 10.0564 15.9669 10.0791 15.9442 10.1094L8.48567 18.9671L8.38004 19.1034C8.36474 19.1184 8.3571 19.1337 8.34975 19.1563C8.3421 19.1713 8.3421 19.194 8.3421 19.2093C8.33446 19.2622 8.3571 19.3075 8.3874 19.3452C8.4177 19.3755 8.46301 19.3982 8.51597 19.4058H8.68984ZM9.2497 18.8839L15.8986 11.0323L15.7701 18.8915L9.2497 18.8839Z" fill="#F39211"/>
<path fill-rule="evenodd" clip-rule="evenodd" d="M15.9442 10.1094C15.9669 10.0791 15.9969 10.0564 16.0348 10.0488L16.0575 10.0414L16.0651 10.0261L16.1404 10.0488L16.2996 10.1017C16.3373 10.1094 16.3676 10.132 16.3902 10.1623C16.4129 10.1926 16.4282 10.2306 16.4282 10.2683V10.2759L16.3223 19.1637V19.2546C16.3299 19.3075 16.3073 19.3528 16.277 19.3908C16.2467 19.4211 16.2013 19.4438 16.1481 19.4511H16.1404H16.1331L16.0348 19.4438L8.68983 19.4058H8.51595C8.463 19.3982 8.41769 19.3755 8.38738 19.3452C8.35708 19.3075 8.33444 19.2622 8.34209 19.2093C8.34209 19.194 8.34208 19.1713 8.34973 19.1563C8.35709 19.1337 8.36473 19.1184 8.38003 19.1034L8.48566 18.9671L15.9442 10.1094ZM18.372 4.40602L5.14972 20.6691H18.372V19.4891H17.5099C17.3055 19.4891 17.1393 19.3225 17.1393 19.1184C17.1393 18.9142 17.3055 18.7477 17.5099 18.7477H18.372V17.7568H17.5099C17.3055 17.7568 17.1466 17.5906 17.1466 17.3938C17.1466 17.1896 17.3055 17.0231 17.5099 17.0231H18.372V16.0322H17.5099C17.3055 16.0322 17.1393 15.866 17.1393 15.6615C17.1393 15.4573 17.3055 15.2911 17.5099 15.2911H18.372V14.3H17.5099C17.3055 14.3 17.1466 14.1337 17.1466 13.9293C17.1466 13.7328 17.3055 13.5662 17.5099 13.5662H18.372V12.5754H17.5099C17.3055 12.5754 17.1466 12.4088 17.1466 12.2047C17.1466 12.0005 17.3055 11.834 17.5099 11.834H18.372V10.8431H17.5099C17.3055 10.8431 17.1466 10.6769 17.1466 10.4724C17.1466 10.2683 17.3055 10.1094 17.5099 10.1094H18.372V9.11852H17.5099C17.3055 9.11852 17.1393 8.95229 17.1393 8.74782C17.1393 8.54365 17.3055 8.37713 17.5099 8.37713H18.372V7.38626H17.5099C17.3055 7.38626 17.1393 7.22005 17.1393 7.01558C17.1393 6.8114 17.3055 6.65252 17.5099 6.65252H18.372V4.40602" fill="#F9C50F"/>
<path fill-rule="evenodd" clip-rule="evenodd" d="M5.14974 20.6691L18.372 4.40602V6.65253H17.51C17.3055 6.65253 17.1393 6.8114 17.1393 7.01558C17.1393 7.22005 17.3055 7.38626 17.51 7.38626H18.372V8.37713H17.51C17.3055 8.37713 17.1393 8.54365 17.1393 8.74782C17.1393 8.95229 17.3055 9.11852 17.51 9.11852H18.372V10.1094H17.51C17.3055 10.1094 17.1466 10.2683 17.1466 10.4724C17.1466 10.6769 17.3055 10.8431 17.51 10.8431H18.372V11.834H17.51C17.3055 11.834 17.1466 12.0005 17.1466 12.2047C17.1466 12.4088 17.3055 12.5754 17.51 12.5754H18.372V13.5662H17.51C17.3055 13.5662 17.1466 13.7328 17.1466 13.9293C17.1466 14.1337 17.3055 14.3 17.51 14.3H18.372V15.2911H17.51C17.3055 15.2911 17.1393 15.4573 17.1393 15.6615C17.1393 15.866 17.3055 16.0322 17.51 16.0322H18.372V17.0231H17.51C17.3055 17.0231 17.1466 17.1896 17.1466 17.3938C17.1466 17.5906 17.3055 17.7568 17.51 17.7568H18.372V18.7477H17.51C17.3055 18.7477 17.1393 18.9142 17.1393 19.1184C17.1393 19.3225 17.3055 19.4891 17.51 19.4891H18.372V20.6691H5.14974ZM18.8639 3.02181C18.72 2.96886 18.5538 3.01445 18.4552 3.13537L4.08356 20.805C4.03031 20.8733 4.00765 20.9492 4 21.0321V21.0474C4 21.0924 4.01531 21.1457 4.03825 21.1987C4.09857 21.3272 4.22684 21.4028 4.371 21.4028H18.743C18.9471 21.4028 19.1133 21.244 19.1133 21.0398V3.36985C19.1133 3.21834 19.0151 3.07477 18.8639 3.02181" fill="#F39211"/>
<path fill-rule="evenodd" clip-rule="evenodd" d="M17.5099 7.38625H18.3719V6.65251H17.5099C17.3055 6.65251 17.1393 6.81139 17.1393 7.01557C17.1393 7.22003 17.3055 7.38625 17.5099 7.38625" fill="#F39211"/>
<path fill-rule="evenodd" clip-rule="evenodd" d="M18.3719 8.37713H17.5099C17.3055 8.37713 17.1393 8.54365 17.1393 8.74782C17.1393 8.95229 17.3055 9.11852 17.5099 9.11852H18.3719V8.37713" fill="#F39211"/>
<path fill-rule="evenodd" clip-rule="evenodd" d="M18.3719 10.1094H17.5099C17.3055 10.1094 17.1466 10.2682 17.1466 10.4724C17.1466 10.6769 17.3055 10.8431 17.5099 10.8431H18.3719V10.1094" fill="#F39211"/>
<path fill-rule="evenodd" clip-rule="evenodd" d="M18.3719 11.834H17.5099C17.3055 11.834 17.1466 12.0005 17.1466 12.2047C17.1466 12.4089 17.3055 12.5754 17.5099 12.5754H18.3719V11.834" fill="#F39211"/>
<path fill-rule="evenodd" clip-rule="evenodd" d="M18.3719 13.5662H17.5099C17.3055 13.5662 17.1466 13.7328 17.1466 13.9293C17.1466 14.1337 17.3055 14.3 17.5099 14.3H18.3719V13.5662" fill="#F39211"/>
<path fill-rule="evenodd" clip-rule="evenodd" d="M18.3719 15.2911H17.5099C17.3055 15.2911 17.1393 15.4573 17.1393 15.6615C17.1393 15.866 17.3055 16.0322 17.5099 16.0322H18.3719V15.2911" fill="#F39211"/>
<path fill-rule="evenodd" clip-rule="evenodd" d="M18.3719 17.0231H17.5099C17.3055 17.0231 17.1466 17.1896 17.1466 17.3938C17.1466 17.5906 17.3055 17.7568 17.5099 17.7568H18.3719V17.0231" fill="#F39211"/>
<path fill-rule="evenodd" clip-rule="evenodd" d="M18.3719 18.7477H17.5099C17.3055 18.7477 17.1393 18.9142 17.1393 19.1184C17.1393 19.3225 17.3055 19.4891 17.5099 19.4891H18.3719V18.7477" fill="#F39211"/>
</svg>
