<svg width="24" height="24" viewBox="0 0 24 24" fill="none" xmlns="http://www.w3.org/2000/svg">
<path fill-rule="evenodd" clip-rule="evenodd" d="M11.527 12.9616C11.9043 12.9616 12.2187 13.2669 12.2187 13.6442V18.6203C12.2187 19.006 11.9043 19.3117 11.527 19.3117C11.1501 19.3117 10.8447 19.006 10.8447 18.6203V13.6442C10.8447 13.2669 11.1501 12.9616 11.527 12.9616Z" fill="#100F0D"/>
<path fill-rule="evenodd" clip-rule="evenodd" d="M18.2187 3H4.80874C4.36856 3 4 3.35947 4 3.79965V12.6468C4 13.087 4.36856 13.4461 4.80874 13.4461H9.66779L7.61119 20.3985C7.54796 20.6322 7.68281 20.8565 7.91652 20.9015L8.29346 20.9731C8.52717 21.0182 8.7787 20.8659 8.84159 20.6322L10.9614 13.4461H12.057L14.0961 20.8834C14.159 21.108 14.4105 21.2607 14.6442 21.2163L15.0212 21.1436C15.2549 21.108 15.3894 20.8746 15.3265 20.65L13.3593 13.4461H18.2187C18.6589 13.4461 19.0184 13.087 19.0184 12.6468V3.79965C19.0184 3.35947 18.6589 3 18.2187 3V3ZM5.52699 11.8835V4.40122H17.4914V11.8835H5.52699" fill="#CFCECD"/>
<path fill-rule="evenodd" clip-rule="evenodd" d="M8.84158 20.6322L10.9614 13.4461H9.66778L7.61118 20.3985C7.54795 20.6322 7.6828 20.8565 7.91651 20.9015L8.29345 20.9731C8.52717 21.0182 8.7787 20.8659 8.84158 20.6322" fill="#100F0D"/>
<path fill-rule="evenodd" clip-rule="evenodd" d="M12.0569 13.4461L14.0961 20.8834C14.159 21.108 14.4105 21.2607 14.6442 21.2163L15.0211 21.1436C15.2549 21.108 15.3894 20.8746 15.3265 20.65L13.3593 13.4461H12.0569Z" fill="#100F0D"/>
<path fill-rule="evenodd" clip-rule="evenodd" d="M5.52701 4.40122V11.8835H17.4914V4.40122H5.52701" fill="#5E6061"/>
<path fill-rule="evenodd" clip-rule="evenodd" d="M5.52701 4.40122V11.2456H17.4914V4.40122H5.52701" fill="white"/>
<path d="M13.8715 8.57835C13.8715 8.80263 13.8355 8.99093 13.7726 9.12612C13.7457 9.18901 13.7097 9.19774 13.6472 9.17084C13.5661 9.12613 13.5302 9.08072 13.5302 9.05417C13.5302 9.04508 13.5392 9.02726 13.557 9.0091C13.6112 8.8746 13.629 8.76665 13.629 8.6856C13.6199 8.62307 13.593 8.58709 13.5302 8.58709C13.5211 8.58709 13.5123 8.58709 13.4942 8.57835C13.4764 8.57835 13.4673 8.57835 13.4585 8.57835C13.4044 8.57835 13.3415 8.62307 13.2699 8.72159C13.1888 8.82954 13.1081 8.98219 13.0362 9.17084C12.9733 9.33259 12.9373 9.46744 12.9104 9.58412C12.9013 9.66482 12.8922 9.73643 12.8922 9.80875C12.8922 10.0239 12.9642 10.141 13.0991 10.1322C13.2248 10.1322 13.4044 9.97015 13.6472 9.66482C13.6737 9.63792 13.6919 9.61975 13.7097 9.61975C13.7279 9.61975 13.7366 9.62919 13.7366 9.65609C13.7366 9.66482 13.7366 9.68299 13.7279 9.7008C13.6472 9.88945 13.548 10.0599 13.4226 10.2039C13.3953 10.2398 13.3415 10.2577 13.2608 10.2577C13.2157 10.2577 13.1529 10.2489 13.09 10.2308C12.9555 10.222 12.8475 10.177 12.7668 10.105C12.6858 10.0152 12.6411 9.90726 12.6501 9.77311C12.6501 9.61975 12.7036 9.4042 12.8115 9.13486C12.9195 8.83861 13.0362 8.61399 13.1529 8.47949C13.2067 8.425 13.2608 8.38936 13.2968 8.38936C13.3328 8.38936 13.4044 8.42499 13.5211 8.48857C13.5752 8.4704 13.6381 8.45224 13.6919 8.45224C13.8086 8.45224 13.8715 8.4973 13.8715 8.57835ZM12.5509 6.7911C12.5691 6.80857 12.5782 6.81765 12.5782 6.83547C12.5782 6.86272 12.56 6.88054 12.524 6.88054C12.5062 6.88054 12.4971 6.87145 12.4793 6.86272C12.4164 6.82674 12.3623 6.80857 12.3267 6.80857C12.2365 6.80857 12.138 6.89835 12.0301 7.07791C11.635 7.71582 11.3474 8.56019 11.177 9.5932C11.3205 9.34133 11.4372 9.15303 11.5092 9.04508C11.6618 8.82954 11.8236 8.64997 11.9853 8.4973C12.066 8.42499 12.138 8.38936 12.2009 8.38936C12.2278 8.38936 12.2816 8.40718 12.3536 8.45224C12.4793 8.51513 12.5422 8.60526 12.524 8.73067C12.5062 9.01818 12.4343 9.29661 12.3176 9.5663C12.2009 9.83565 12.066 10.0421 11.9134 10.1951C11.8683 10.2398 11.8236 10.2577 11.7698 10.2577C11.68 10.2577 11.5452 10.1501 11.3834 9.93452C11.3565 9.90727 11.3474 9.88945 11.3474 9.87163C11.3474 9.84473 11.3656 9.83565 11.3922 9.83565C11.4103 9.83565 11.4372 9.84473 11.4645 9.87163C11.5452 9.94325 11.6171 9.97923 11.68 9.97923C11.7425 9.97923 11.7967 9.94325 11.8505 9.87163C11.9494 9.74587 12.0479 9.56631 12.1289 9.35041C12.2187 9.09888 12.2638 8.88368 12.2638 8.6856C12.2638 8.60525 12.2365 8.56892 12.1918 8.56892C12.1649 8.56892 12.1289 8.58709 12.0929 8.61399C11.9134 8.77573 11.7247 8.99093 11.5452 9.27879C11.3474 9.58412 11.2039 9.88036 11.1141 10.1591C11.105 10.2126 11.0781 10.2398 11.0599 10.2398C11.0421 10.2398 11.033 10.2308 11.0061 10.222C10.9345 10.1682 10.8894 10.141 10.8804 10.1322C10.8535 10.105 10.8356 10.069 10.8356 10.0152C10.8356 9.99705 10.8447 9.97015 10.8535 9.93452C11.0243 9.00036 11.2395 8.20979 11.5092 7.55407C11.7066 7.06009 11.8865 6.74569 12.0479 6.59303C12.0929 6.55739 12.138 6.53923 12.174 6.53923C12.2096 6.53923 12.2638 6.56612 12.3267 6.61118C12.3983 6.67407 12.4793 6.72752 12.5509 6.7911V6.7911ZM10.575 8.73067C10.4402 9.10796 10.3504 9.42238 10.2966 9.67355C10.3235 9.64666 10.3504 9.61975 10.3864 9.57504C10.4224 9.5394 10.4402 9.5125 10.4493 9.50342C10.4762 9.47652 10.4943 9.46744 10.5212 9.46744C10.5391 9.46744 10.5481 9.47652 10.5481 9.49434C10.5481 9.5125 10.5481 9.53032 10.53 9.5394C10.3951 9.74587 10.3057 9.95233 10.2606 10.1591C10.2519 10.2126 10.2246 10.2489 10.1977 10.2489C10.1799 10.2489 10.1349 10.222 10.0629 10.177C10.0273 10.1501 10.0004 10.1232 10.0004 10.105C9.99127 10.0959 9.99127 10.0599 10.0004 10.0152C10.0542 9.63792 10.1349 9.33259 10.2246 9.09015C10.0992 9.29661 9.92839 9.52123 9.70376 9.77311C9.51512 9.98831 9.37154 10.1232 9.29049 10.186C9.22761 10.2308 9.18289 10.2489 9.14691 10.2489C9.12001 10.2489 9.08403 10.2308 9.03023 10.186C8.94918 10.141 8.91354 10.0781 8.91354 9.99705C8.91354 9.97923 8.91354 9.96141 8.91354 9.93452C8.94044 9.71862 9.03896 9.46744 9.2007 9.18901C9.36245 8.9015 9.5511 8.65871 9.76665 8.46168C9.82953 8.39844 9.89241 8.36246 9.94621 8.36246C10.0004 8.37154 10.0992 8.43442 10.2519 8.56892C10.2606 8.58709 10.2697 8.59617 10.2697 8.61399C10.2697 8.6318 10.2519 8.64089 10.2246 8.64089C10.2068 8.64089 10.1977 8.64089 10.189 8.64089C10.0811 8.59617 10.0004 8.59617 9.93748 8.64089C9.80263 8.73975 9.64997 8.91931 9.47914 9.17992C9.29049 9.46744 9.17381 9.7277 9.13783 9.96142C9.12874 9.97015 9.12874 9.98832 9.12874 9.99705C9.12874 10.033 9.14691 10.0512 9.17381 10.0512C9.22761 10.0512 9.28175 10.0152 9.35372 9.94325C9.51512 9.7815 9.69468 9.58412 9.88333 9.34133C10.0723 9.09888 10.1977 8.91059 10.2519 8.77574C10.2875 8.68561 10.3148 8.62307 10.3235 8.57835C10.3417 8.51512 10.3686 8.47949 10.3864 8.47949C10.4136 8.47949 10.4584 8.51512 10.5391 8.56892C10.575 8.59617 10.5932 8.62307 10.5932 8.64089C10.6019 8.6587 10.5932 8.68561 10.575 8.73067" fill="#100F0D"/>
<path fill-rule="evenodd" clip-rule="evenodd" d="M5.52701 4.40122V5.03004H17.4914V4.40122H5.52701" fill="#5E6061"/>
</svg>
