<svg width="24" height="24" viewBox="0 0 24 24" fill="none" xmlns="http://www.w3.org/2000/svg">
<path fill-rule="evenodd" clip-rule="evenodd" d="M17.8722 2H5.81854C5.36318 2 5 2.36284 5 2.8182V21.6705C5 22.1261 5.37138 22.4972 5.81854 22.4972H17.8722C18.3275 22.4972 18.6904 22.1261 18.6904 21.6705V2.8182C18.6904 2.37104 18.3275 2 17.8722 2Z" fill="#1C1A17"/>
<path fill-rule="evenodd" clip-rule="evenodd" d="M9.09958 12.6032V10.5279C9.09958 10.3422 8.95622 10.1906 8.77086 10.1906H6.68729C6.51013 10.1906 6.36676 10.3422 6.36676 10.5279V12.6032C6.36676 12.7886 6.51013 12.9323 6.68729 12.9323H8.77086C8.95622 12.9323 9.09958 12.7886 9.09958 12.6032Z" fill="#888989"/>
<path fill-rule="evenodd" clip-rule="evenodd" d="M10.4578 10.5279V12.6032C10.4578 12.7886 10.6012 12.9323 10.7869 12.9323H12.8701C13.0473 12.9323 13.1992 12.7886 13.1992 12.6032V10.5279C13.1992 10.3422 13.0473 10.1906 12.8701 10.1906H10.7869C10.6012 10.1906 10.4578 10.3422 10.4578 10.5279Z" fill="#888989"/>
<path fill-rule="evenodd" clip-rule="evenodd" d="M14.5489 10.5193V12.6032C14.5489 12.7801 14.7005 12.9323 14.8779 12.9323H16.9527C17.1384 12.9323 17.2899 12.7801 17.2899 12.6032V10.5279C17.2899 10.3422 17.1384 10.1991 16.9527 10.1906H14.8779C14.7005 10.1906 14.5489 10.334 14.5489 10.5193" fill="#888989"/>
<path fill-rule="evenodd" clip-rule="evenodd" d="M16.9608 14.2987H14.8861C14.7004 14.2987 14.557 14.4418 14.557 14.6275V16.7025C14.557 16.8879 14.7004 17.0316 14.8861 17.0316H16.9608C17.1468 17.0316 17.2898 16.8879 17.2898 16.7025V14.6275C17.2898 14.4418 17.1468 14.2987 16.9608 14.2987Z" fill="#888989"/>
<path fill-rule="evenodd" clip-rule="evenodd" d="M13.1992 16.7025V14.6189C13.1992 14.4418 13.0473 14.2899 12.8701 14.2899H10.7869C10.6012 14.2899 10.4578 14.4418 10.4578 14.6189V16.7025C10.4578 16.8879 10.6012 17.0316 10.7869 17.0316H12.8701C13.0473 17.0316 13.1992 16.8879 13.1992 16.7025Z" fill="#E83736"/>
<path fill-rule="evenodd" clip-rule="evenodd" d="M9.09958 16.7025V14.6189C9.09958 14.4418 8.95622 14.2899 8.77086 14.2899H6.68729C6.51013 14.2899 6.36676 14.4418 6.36676 14.6189V16.7025C6.36676 16.8879 6.51013 17.0316 6.68729 17.0316H8.77086C8.95622 17.0316 9.09958 16.8879 9.09958 16.7025Z" fill="#888989"/>
<path fill-rule="evenodd" clip-rule="evenodd" d="M10.4578 18.7182V20.8021C10.4578 20.9874 10.6012 21.1311 10.7869 21.1311H12.8701C13.0473 21.1311 13.1992 20.9874 13.1992 20.8021V18.7182C13.1992 18.541 13.0473 18.3894 12.8701 18.3894H10.7869C10.6012 18.3894 10.4578 18.541 10.4578 18.7182Z" fill="#888989"/>
<path fill-rule="evenodd" clip-rule="evenodd" d="M14.557 18.7182V20.8021C14.557 20.9874 14.7089 21.1311 14.8861 21.1311H16.9693C17.155 21.1311 17.2984 20.9874 17.2984 20.8021V18.7182C17.2984 18.541 17.155 18.3894 16.9693 18.3894H14.8861C14.7089 18.3894 14.557 18.541 14.557 18.7182Z" fill="#888989"/>
<path d="M8.09602 12.0718C8.09602 12.0885 8.09602 12.1052 8.09602 12.1138C8.09602 12.1305 8.08748 12.139 8.08748 12.1475L8.07896 12.1557C8.07043 12.1643 8.0619 12.1643 8.0619 12.1643H7.40444C7.39559 12.1643 7.39559 12.1643 7.38738 12.1557L7.37886 12.1475C7.37066 12.139 7.37066 12.1305 7.37066 12.1138C7.37066 12.1052 7.36212 12.0885 7.36212 12.0718C7.36212 12.0547 7.37066 12.038 7.37066 12.0294C7.37066 12.0127 7.37066 12.0042 7.37886 11.9957C7.37886 11.9874 7.37885 11.9874 7.38738 11.9789C7.38738 11.9789 7.39559 11.9789 7.40444 11.9789H7.6236V11.2027L7.42971 11.3041C7.42085 11.3126 7.40444 11.3208 7.39559 11.3208C7.38738 11.3208 7.37886 11.3208 7.37886 11.3126C7.37066 11.3126 7.37066 11.3041 7.37066 11.287C7.36213 11.27 7.36212 11.2532 7.36212 11.2365C7.36212 11.2198 7.36212 11.2027 7.36212 11.1945C7.36212 11.1856 7.37066 11.1774 7.37066 11.1692C7.37066 11.1692 7.37886 11.1604 7.37886 11.1522C7.38739 11.1522 7.38738 11.1437 7.39559 11.1437L7.64886 10.975C7.65739 10.975 7.65739 10.975 7.66559 10.9665C7.66559 10.9665 7.67412 10.9665 7.68265 10.9665C7.69118 10.9665 7.69938 10.9665 7.70791 10.9665C7.72464 10.9665 7.7417 10.9665 7.75843 10.9665C7.7837 10.9665 7.80076 10.9665 7.81716 10.9665C7.82602 10.9665 7.84242 10.9665 7.84242 10.9665C7.85128 10.975 7.85948 10.975 7.85948 10.975C7.86801 10.9832 7.868 10.9832 7.868 10.9918V11.9789H8.0619C8.0619 11.9789 8.07043 11.9789 8.07896 11.9789C8.07896 11.9874 8.08748 11.9874 8.08748 11.9957C8.08748 12.0042 8.09602 12.0127 8.09602 12.0294C8.09602 12.038 8.09602 12.0547 8.09602 12.0718" fill="white"/>
<path d="M12.2034 12.0632C12.2034 12.08 12.2034 12.097 12.2034 12.1138C12.2034 12.1223 12.1952 12.1305 12.1952 12.139C12.1952 12.1475 12.187 12.1557 12.187 12.1557C12.1782 12.1643 12.17 12.1643 12.17 12.1643H11.4869C11.4699 12.1643 11.4617 12.1643 11.4446 12.1557C11.4364 12.1557 11.4279 12.1557 11.4279 12.1475C11.4194 12.139 11.4108 12.1305 11.4108 12.1138C11.4108 12.097 11.4023 12.08 11.4023 12.0632C11.4023 12.038 11.4108 12.0209 11.4108 12.0127C11.4108 11.9957 11.4108 11.9789 11.4193 11.9704C11.4279 11.9622 11.4279 11.9451 11.4364 11.9366C11.4446 11.9281 11.4528 11.9199 11.4699 11.9028L11.672 11.6837C11.7146 11.6417 11.7484 11.599 11.7737 11.5655C11.7989 11.5318 11.8157 11.498 11.8327 11.4642C11.8494 11.4389 11.858 11.4137 11.8662 11.3884C11.8662 11.3631 11.8662 11.3379 11.8662 11.3208C11.8662 11.2952 11.8662 11.2788 11.858 11.2618C11.858 11.2447 11.8409 11.228 11.8327 11.2112C11.8157 11.2027 11.8071 11.1856 11.7819 11.1774C11.7651 11.1774 11.7399 11.1692 11.7146 11.1692C11.6811 11.1692 11.647 11.1774 11.6214 11.1856C11.5965 11.1945 11.5713 11.2027 11.546 11.2112C11.5289 11.228 11.5119 11.2365 11.4951 11.2447C11.4781 11.2532 11.4699 11.2618 11.4617 11.2618C11.4528 11.2618 11.4528 11.2618 11.4446 11.2532C11.4446 11.2532 11.4364 11.2447 11.4364 11.2365C11.4364 11.228 11.4364 11.2198 11.4279 11.2027C11.4279 11.1856 11.4279 11.1692 11.4279 11.1522C11.4279 11.1351 11.4279 11.1269 11.4279 11.1102C11.4279 11.1017 11.4364 11.0931 11.4364 11.0849C11.4364 11.0849 11.4364 11.0761 11.4446 11.0679C11.4446 11.0679 11.4528 11.0597 11.4617 11.0511C11.4699 11.0426 11.4781 11.0341 11.5037 11.0259C11.5204 11.0085 11.546 11.0006 11.5795 10.9918C11.6047 10.975 11.6385 10.9665 11.672 10.958C11.7146 10.958 11.7484 10.9498 11.7904 10.9498C11.8494 10.9498 11.9085 10.958 11.9505 10.975C12.0013 10.9918 12.0351 11.0085 12.0686 11.0426C12.0939 11.0679 12.1194 11.1017 12.1362 11.1351C12.1529 11.1774 12.1614 11.2198 12.1614 11.2618C12.1614 11.3041 12.1529 11.3379 12.1447 11.3799C12.1362 11.4137 12.1277 11.456 12.1027 11.498C12.0775 11.54 12.0433 11.5908 12.0013 11.6417C11.959 11.6919 11.9 11.7594 11.8327 11.8267L11.6975 11.9704H12.1614C12.17 11.9704 12.1782 11.9704 12.1782 11.9704C12.187 11.9789 12.187 11.9789 12.1952 11.9874C12.1952 11.9957 12.2034 12.0042 12.2034 12.0209C12.2034 12.0294 12.2034 12.0462 12.2034 12.0632" fill="white"/>
<path d="M16.3198 11.8103C16.3198 11.869 16.3034 11.9199 16.2863 11.9622C16.2611 12.0127 16.2273 12.0547 16.185 12.08C16.1515 12.1138 16.1007 12.139 16.0416 12.1558C15.9826 12.1728 15.9235 12.1814 15.8562 12.1814C15.8139 12.1814 15.7805 12.1728 15.7463 12.1643C15.704 12.1643 15.6788 12.1558 15.6453 12.1476C15.62 12.139 15.6033 12.1305 15.578 12.1223C15.561 12.1138 15.5524 12.1052 15.5442 12.097C15.5442 12.097 15.5357 12.0885 15.5357 12.08C15.5357 12.0718 15.5272 12.0718 15.5272 12.0633C15.5272 12.0547 15.5272 12.038 15.519 12.0295C15.519 12.0127 15.519 12.0042 15.519 11.9875C15.519 11.9537 15.5272 11.9366 15.5272 11.9199C15.5357 11.911 15.5442 11.9028 15.5524 11.9028C15.5524 11.9028 15.5692 11.911 15.5862 11.9199C15.5944 11.9281 15.62 11.9366 15.6368 11.9451C15.662 11.9537 15.6876 11.9622 15.7211 11.9704C15.7552 11.9789 15.7887 11.9875 15.831 11.9875C15.8648 11.9875 15.89 11.9789 15.9153 11.9704C15.9406 11.9622 15.9658 11.9537 15.9826 11.9366C15.9996 11.9199 16.0164 11.9028 16.0249 11.8858C16.0331 11.869 16.0416 11.8438 16.0416 11.8185C16.0416 11.7932 16.0331 11.768 16.0249 11.7427C16.0078 11.7171 15.9908 11.7007 15.9744 11.6837C15.9488 11.6755 15.9235 11.6584 15.89 11.6499C15.8648 11.6417 15.8225 11.6417 15.7805 11.6417H15.6788C15.6706 11.6417 15.662 11.6417 15.6538 11.6328L15.6453 11.6246C15.6368 11.6161 15.6368 11.6076 15.6368 11.5908C15.6368 11.5823 15.6286 11.5656 15.6286 11.5485C15.6286 11.5318 15.6368 11.5147 15.6368 11.5065C15.6368 11.4895 15.6368 11.4813 15.6453 11.4813C15.6453 11.4727 15.6538 11.4642 15.6538 11.4642C15.662 11.4642 15.662 11.4642 15.6706 11.4642H15.7805C15.8139 11.4642 15.8477 11.456 15.873 11.4475C15.8982 11.4389 15.9235 11.4304 15.9406 11.4137C15.9573 11.3969 15.9744 11.3799 15.9826 11.3546C15.9908 11.3379 15.9996 11.3126 15.9996 11.287C15.9996 11.2618 15.9908 11.2447 15.9908 11.228C15.9826 11.2112 15.9744 11.1945 15.9573 11.1775C15.9488 11.1693 15.932 11.1522 15.9071 11.1522C15.89 11.1437 15.8648 11.1351 15.831 11.1351C15.8057 11.1351 15.7719 11.1437 15.7463 11.1522C15.7129 11.1604 15.6876 11.1693 15.6706 11.1857C15.6453 11.1945 15.6286 11.2027 15.6115 11.2113C15.5944 11.228 15.5862 11.228 15.578 11.228C15.5692 11.228 15.5692 11.228 15.561 11.228C15.561 11.2198 15.561 11.2198 15.5524 11.2113C15.5524 11.2113 15.5524 11.1945 15.5524 11.1857C15.5442 11.1775 15.5442 11.1604 15.5442 11.1437C15.5442 11.1269 15.5442 11.1102 15.5524 11.1017C15.5524 11.0931 15.5524 11.0849 15.5524 11.0761C15.5524 11.0679 15.5525 11.0679 15.561 11.0597C15.561 11.0511 15.5692 11.0511 15.5692 11.0426C15.578 11.0341 15.5944 11.0259 15.6115 11.0174C15.6286 11.0085 15.6538 10.9918 15.6788 10.9832C15.7129 10.975 15.7463 10.9665 15.7805 10.958C15.8225 10.9498 15.8562 10.9412 15.9071 10.9412C15.9658 10.9412 16.0164 10.9498 16.0583 10.9665C16.1007 10.975 16.143 11.0006 16.1682 11.0259C16.202 11.0511 16.2191 11.0761 16.2355 11.1184C16.2526 11.1522 16.2611 11.1945 16.2611 11.2447C16.2611 11.2788 16.2611 11.3126 16.2444 11.3464C16.2355 11.3799 16.2273 11.4051 16.2102 11.4304C16.1938 11.456 16.1682 11.4727 16.143 11.4895C16.1177 11.5065 16.0843 11.5232 16.0501 11.5318C16.0925 11.54 16.1259 11.5485 16.16 11.5656C16.1938 11.5823 16.2191 11.599 16.2444 11.6246C16.2696 11.6499 16.2863 11.6755 16.2945 11.7089C16.3116 11.7427 16.3198 11.7762 16.3198 11.8103" fill="white"/>
<path d="M7.80081 15.2685H7.79227L7.48029 15.817H7.80081V15.2685ZM8.17153 15.9178C8.17153 15.943 8.17153 15.9686 8.16332 15.9853C8.15512 16.0021 8.14626 16.0106 8.13806 16.0106H8.02849V16.2301C8.02849 16.2301 8.02849 16.2386 8.02849 16.2468C8.01996 16.2468 8.01143 16.2557 8.00323 16.2557C7.9947 16.2557 7.98651 16.2639 7.96945 16.2639C7.95239 16.2639 7.93597 16.2639 7.91038 16.2639C7.89365 16.2639 7.86807 16.2639 7.85954 16.2639C7.84248 16.2639 7.82607 16.2557 7.81722 16.2557C7.80901 16.2557 7.80901 16.2468 7.80081 16.2468C7.80081 16.2386 7.80081 16.2301 7.80081 16.2301V16.0106H7.34545C7.3366 16.0106 7.32839 16.0106 7.32019 16.0106C7.31133 16.0021 7.30313 16.0021 7.30313 15.9939C7.29493 15.9853 7.29493 15.9768 7.29493 15.9601C7.28607 15.943 7.28607 15.9266 7.28607 15.901C7.28607 15.8843 7.28607 15.8676 7.28607 15.8505C7.29493 15.8334 7.29493 15.8252 7.29493 15.8082C7.29493 15.8 7.30313 15.7915 7.30313 15.7747C7.31133 15.7662 7.31133 15.758 7.32019 15.7495L7.69124 15.0917C7.69124 15.0917 7.69944 15.0828 7.70797 15.0828C7.70797 15.0743 7.7247 15.0743 7.73323 15.0661C7.74996 15.0661 7.76702 15.0661 7.78375 15.0661C7.80901 15.0576 7.83428 15.0576 7.85954 15.0576C7.89366 15.0576 7.91892 15.0576 7.93598 15.0661C7.96124 15.0661 7.97798 15.0661 7.99471 15.0743C8.00324 15.0743 8.01997 15.0743 8.01997 15.0828C8.0285 15.0917 8.02849 15.0917 8.02849 15.0995V15.817H8.13806C8.14626 15.817 8.15512 15.8252 8.16332 15.8423C8.17153 15.8505 8.17153 15.8758 8.17153 15.9178" fill="white"/>
<path d="M12.2205 15.859C12.2205 15.9266 12.2035 15.9853 12.1871 16.0362C12.1615 16.0867 12.1277 16.129 12.0857 16.1625C12.0523 16.1963 12.0014 16.2215 11.9423 16.2386C11.8833 16.2557 11.8243 16.2721 11.7485 16.2721C11.7147 16.2721 11.6812 16.2639 11.6471 16.2639C11.6133 16.2557 11.5795 16.2468 11.5543 16.2468C11.529 16.2386 11.5119 16.2301 11.4952 16.2215C11.4781 16.2133 11.4617 16.2133 11.4617 16.2048C11.4529 16.1963 11.4529 16.1963 11.4447 16.1878C11.4447 16.1878 11.4447 16.1796 11.4447 16.171C11.4365 16.1625 11.4365 16.1543 11.4365 16.1372C11.4365 16.129 11.4365 16.112 11.4365 16.0952C11.4365 16.0782 11.4365 16.07 11.4365 16.0529C11.4447 16.0447 11.4447 16.0362 11.4447 16.0273C11.4447 16.0191 11.4529 16.0106 11.4529 16.0106C11.4617 16.0106 11.4617 16.0021 11.4699 16.0021C11.4699 16.0021 11.487 16.0106 11.4952 16.0191C11.5119 16.0273 11.529 16.0273 11.546 16.0362C11.5625 16.0447 11.5877 16.0529 11.6215 16.0614C11.6471 16.07 11.6894 16.0782 11.7232 16.0782C11.7652 16.0782 11.7905 16.07 11.8243 16.0614C11.8495 16.0529 11.8744 16.0447 11.9 16.0273C11.9168 16.0106 11.9338 15.9939 11.9423 15.9686C11.9591 15.943 11.9591 15.9096 11.9591 15.8758C11.9591 15.8505 11.9591 15.8252 11.9505 15.8C11.9423 15.7747 11.9253 15.758 11.9 15.7409C11.8833 15.7235 11.858 15.7153 11.8243 15.7071C11.799 15.6986 11.7567 15.6901 11.7147 15.6901C11.6812 15.6901 11.6471 15.6986 11.6133 15.6986C11.5877 15.6986 11.5625 15.7071 11.5372 15.7071C11.5205 15.7071 11.5037 15.6986 11.4952 15.6901C11.487 15.6815 11.487 15.6648 11.487 15.6399V15.1251C11.487 15.0995 11.487 15.0828 11.4952 15.0743C11.5119 15.0576 11.5205 15.0576 11.546 15.0576H12.111C12.111 15.0576 12.1195 15.0576 12.1277 15.0661C12.1277 15.0661 12.1362 15.0743 12.1362 15.0828C12.1362 15.0917 12.1448 15.0995 12.1448 15.1081C12.1448 15.1251 12.1448 15.1422 12.1448 15.1589C12.1448 15.1924 12.1448 15.2265 12.1362 15.2347C12.1277 15.2518 12.1195 15.26 12.111 15.26H11.6812V15.5214C11.7061 15.5132 11.7232 15.5132 11.7485 15.5132C11.7737 15.5132 11.7905 15.5132 11.8157 15.5132C11.8833 15.5132 11.9338 15.5214 11.984 15.5385C12.0352 15.5467 12.0775 15.572 12.111 15.5976C12.1448 15.631 12.17 15.6648 12.1871 15.7071C12.2124 15.7494 12.2205 15.8 12.2205 15.859" fill="white"/>
<path d="M16.1007 19.6716C16.1007 19.6043 16.1007 19.5535 16.0924 19.5115C16.0842 19.4606 16.0672 19.4268 16.0583 19.4016C16.0416 19.3763 16.0249 19.3592 15.9996 19.351C15.9826 19.334 15.9488 19.334 15.9235 19.334C15.8982 19.334 15.873 19.334 15.8477 19.3428C15.831 19.3592 15.8139 19.3681 15.7975 19.3848C15.7805 19.4101 15.7719 19.4268 15.7631 19.4524C15.7552 19.4777 15.7552 19.5029 15.7552 19.5367C15.7552 19.5705 15.7552 19.5958 15.7631 19.621C15.7719 19.6463 15.7805 19.663 15.7887 19.6801C15.8057 19.6968 15.8225 19.7139 15.8392 19.7221C15.8648 19.7306 15.89 19.7306 15.9153 19.7306C15.9488 19.7306 15.9826 19.7221 16.0163 19.7139C16.0501 19.7053 16.0754 19.6883 16.1007 19.6716V19.6716ZM16.3369 19.7053C16.3369 19.7559 16.3369 19.8064 16.3287 19.8572C16.3287 19.9078 16.3198 19.9586 16.3034 20.0091C16.2945 20.0593 16.2696 20.1102 16.2444 20.1525C16.2191 20.1945 16.1938 20.2368 16.1515 20.2706C16.1177 20.3041 16.0672 20.3293 16.0163 20.3464C15.9573 20.3631 15.89 20.3802 15.8224 20.3802C15.7887 20.3802 15.7631 20.3717 15.7381 20.3717C15.7129 20.3717 15.6876 20.3631 15.6706 20.3549C15.6453 20.3549 15.6286 20.3464 15.6115 20.3379C15.5944 20.3379 15.5862 20.3293 15.578 20.3211C15.578 20.3126 15.5692 20.3041 15.5692 20.2959C15.561 20.2788 15.561 20.2621 15.561 20.2453C15.561 20.2198 15.561 20.203 15.561 20.1945C15.561 20.1781 15.5692 20.1692 15.5692 20.161L15.578 20.1525C15.5862 20.1525 15.5862 20.1525 15.5944 20.1525C15.6033 20.1525 15.6115 20.1525 15.6286 20.1525C15.6368 20.161 15.6538 20.161 15.6706 20.1692C15.6958 20.1781 15.7129 20.1781 15.7381 20.1863C15.7631 20.1863 15.7887 20.1945 15.8224 20.1945C15.873 20.1945 15.9153 20.1781 15.9488 20.161C15.9908 20.1436 16.0163 20.1187 16.0416 20.0846C16.0583 20.0593 16.0754 20.0173 16.0924 19.975C16.1007 19.9416 16.1007 19.891 16.1095 19.849C16.0754 19.8654 16.0416 19.8825 16.0078 19.8996C15.9658 19.9078 15.9153 19.9163 15.8648 19.9163C15.8057 19.9163 15.7463 19.9078 15.704 19.891C15.662 19.8743 15.6286 19.849 15.5944 19.8149C15.5692 19.7897 15.5525 19.7473 15.5357 19.7053C15.5272 19.663 15.519 19.6125 15.519 19.5534C15.519 19.4944 15.5272 19.4353 15.5442 19.3933C15.561 19.3428 15.5862 19.292 15.62 19.2585C15.662 19.2247 15.704 19.1995 15.7552 19.1739C15.8057 19.1568 15.8648 19.1486 15.932 19.1486C15.9908 19.1486 16.0416 19.1486 16.0842 19.1653C16.1259 19.1739 16.16 19.1995 16.185 19.2162C16.2191 19.2415 16.2444 19.2752 16.2611 19.3087C16.2863 19.3428 16.2945 19.3763 16.3116 19.4183C16.3198 19.4606 16.3287 19.5029 16.3369 19.5534C16.3369 19.6043 16.3369 19.6548 16.3369 19.7053" fill="white"/>
<path d="M12.0099 20.0511C12.0099 20.0341 12.0099 20.0091 12.0013 19.9921C11.9931 19.975 11.9761 19.9586 11.959 19.9416C11.9423 19.9245 11.9252 19.9078 11.9 19.891C11.8744 19.8743 11.8494 19.8572 11.8157 19.8405C11.7904 19.8572 11.7651 19.8743 11.7399 19.891C11.7146 19.9078 11.6975 19.9245 11.6893 19.9416C11.672 19.9586 11.6641 19.975 11.6556 19.9921C11.647 20.0091 11.647 20.0259 11.647 20.0511C11.647 20.1017 11.6556 20.1358 11.6893 20.161C11.7231 20.1863 11.7651 20.1945 11.8327 20.1945C11.8914 20.1945 11.9338 20.1863 11.9675 20.161C11.9931 20.1358 12.0099 20.1017 12.0099 20.0511V20.0511ZM11.984 19.4606C11.984 19.4353 11.9761 19.4183 11.9761 19.4016C11.9676 19.3848 11.959 19.3681 11.9423 19.3592C11.9338 19.3428 11.9167 19.334 11.8914 19.334C11.8744 19.3258 11.8495 19.3258 11.8242 19.3258C11.7737 19.3258 11.7399 19.334 11.7146 19.3592C11.6893 19.3848 11.672 19.4101 11.672 19.4524C11.672 19.4777 11.6811 19.4944 11.6811 19.5115C11.6893 19.5282 11.6975 19.5452 11.7146 19.5534C11.7231 19.5705 11.7484 19.5872 11.7651 19.5958C11.7904 19.6125 11.8157 19.6296 11.8409 19.6463C11.8832 19.621 11.9167 19.5872 11.9423 19.5623C11.9675 19.5282 11.984 19.4944 11.984 19.4606V19.4606ZM12.2458 20.0341C12.2458 20.0935 12.2372 20.1358 12.2205 20.1781C12.2034 20.2198 12.1782 20.2621 12.1362 20.2873C12.1027 20.3211 12.0522 20.3379 12.0013 20.3549C11.9505 20.3717 11.8832 20.3802 11.8157 20.3802C11.7484 20.3802 11.6894 20.3717 11.6385 20.3549C11.5876 20.3464 11.546 20.3211 11.5119 20.2959C11.4781 20.2706 11.4528 20.2368 11.4364 20.203C11.4108 20.161 11.4023 20.1187 11.4023 20.0682C11.4023 20.0341 11.4108 20.0006 11.4193 19.975C11.4279 19.9416 11.4446 19.9163 11.4699 19.891C11.4869 19.8654 11.5119 19.8405 11.5371 19.8234C11.5713 19.7979 11.6047 19.7726 11.647 19.7559C11.6132 19.7391 11.5877 19.7221 11.5624 19.6968C11.5371 19.6801 11.5119 19.6548 11.4951 19.6378C11.4781 19.6125 11.4617 19.5872 11.4528 19.5534C11.4446 19.5282 11.4364 19.4944 11.4364 19.4606C11.4364 19.4183 11.4446 19.3763 11.4617 19.334C11.4781 19.292 11.5037 19.2585 11.5371 19.2332C11.5713 19.208 11.6132 19.1821 11.6641 19.1653C11.7146 19.1486 11.7737 19.1486 11.8409 19.1486C11.9085 19.1486 11.9675 19.1486 12.0099 19.1653C12.0604 19.1821 12.0939 19.1995 12.1277 19.2247C12.1529 19.2496 12.1782 19.2838 12.1952 19.3176C12.2034 19.351 12.2123 19.3933 12.2123 19.4353C12.2123 19.4688 12.2123 19.4944 12.2034 19.52C12.187 19.5452 12.1782 19.5705 12.1614 19.5958C12.1447 19.621 12.1194 19.6463 12.0939 19.6716C12.0686 19.6883 12.0433 19.7139 12.0099 19.7306C12.0522 19.7473 12.0857 19.7644 12.1109 19.7897C12.1447 19.8149 12.17 19.8405 12.187 19.8654C12.2034 19.891 12.2205 19.9163 12.229 19.9416C12.2458 19.975 12.2458 20.0006 12.2458 20.0341" fill="white"/>
<path d="M16.1006 15.8843C16.1006 15.8505 16.0924 15.8253 16.0924 15.8C16.0842 15.7833 16.0754 15.758 16.0583 15.7409C16.0501 15.7235 16.0331 15.7153 16.0163 15.7071C15.9907 15.6986 15.9658 15.6901 15.9405 15.6901C15.9235 15.6901 15.9071 15.6986 15.89 15.6986C15.8729 15.6986 15.8562 15.7071 15.8392 15.7071C15.8224 15.7153 15.8057 15.7235 15.7975 15.7327C15.7804 15.7409 15.7631 15.7495 15.7552 15.758C15.7552 15.817 15.7552 15.8758 15.7631 15.9178C15.7719 15.9601 15.7804 15.9939 15.7975 16.0191C15.8139 16.0447 15.831 16.07 15.8477 16.0782C15.8729 16.0867 15.8982 16.0953 15.9235 16.0953C15.9573 16.0953 15.9825 16.0867 15.9996 16.0782C16.0249 16.07 16.0416 16.0529 16.0501 16.0362C16.0672 16.0191 16.0754 15.9939 16.0842 15.9686C16.0924 15.943 16.1006 15.9178 16.1006 15.8843V15.8843ZM16.3368 15.859C16.3368 15.9178 16.3286 15.9768 16.3034 16.0273C16.2863 16.0782 16.2611 16.1205 16.2273 16.1625C16.1938 16.1963 16.1429 16.2301 16.0924 16.2468C16.0416 16.2721 15.9825 16.2806 15.9153 16.2806C15.8562 16.2806 15.8057 16.2721 15.7719 16.2639C15.7293 16.2468 15.6958 16.2301 15.662 16.2048C15.6285 16.1796 15.6033 16.1543 15.5862 16.1205C15.5692 16.0867 15.5524 16.0529 15.5442 16.0106C15.5272 15.9686 15.5272 15.9178 15.519 15.8676C15.5104 15.8171 15.5104 15.7662 15.5104 15.7071C15.5104 15.6648 15.5104 15.6143 15.519 15.5638C15.5272 15.5133 15.5357 15.4627 15.5442 15.4116C15.561 15.361 15.578 15.319 15.6033 15.277C15.6285 15.2265 15.6538 15.1924 15.6958 15.1589C15.7293 15.1251 15.7804 15.0996 15.831 15.0743C15.8815 15.0576 15.9487 15.049 16.0249 15.049C16.0416 15.049 16.0672 15.049 16.0924 15.049C16.1177 15.0576 16.1347 15.0576 16.16 15.0661C16.1767 15.0661 16.1938 15.0743 16.2102 15.0743C16.2273 15.0828 16.2355 15.0828 16.2355 15.0917C16.2443 15.0917 16.2443 15.0996 16.2525 15.1081V15.1169C16.2525 15.1251 16.2611 15.1337 16.2611 15.1422C16.2611 15.1504 16.2611 15.1589 16.2611 15.1757C16.2611 15.1924 16.2611 15.2095 16.2611 15.2177C16.2525 15.2347 16.2525 15.2433 16.2525 15.2518C16.2525 15.26 16.2443 15.26 16.2443 15.2685C16.2355 15.2685 16.2355 15.2685 16.2273 15.2685C16.2191 15.2685 16.2102 15.2685 16.202 15.26C16.185 15.26 16.1682 15.2518 16.16 15.2518C16.143 15.2433 16.1177 15.2433 16.1006 15.2347C16.0754 15.2347 16.0501 15.2347 16.0163 15.2347C15.9658 15.2347 15.932 15.2433 15.89 15.26C15.8562 15.277 15.831 15.302 15.8139 15.3361C15.7886 15.3696 15.7719 15.4037 15.7631 15.4457C15.7552 15.488 15.7463 15.5303 15.7463 15.5805C15.763 15.572 15.7804 15.5638 15.7975 15.5552C15.8139 15.5467 15.831 15.5385 15.8477 15.5303C15.8729 15.5215 15.89 15.5215 15.9153 15.5133C15.9405 15.5133 15.9658 15.5133 15.9907 15.5133C16.0501 15.5133 16.1095 15.5215 16.1515 15.5303C16.1938 15.5467 16.2273 15.572 16.2525 15.6058C16.2778 15.6399 16.3034 15.6734 16.3116 15.7153C16.3286 15.758 16.3368 15.8082 16.3368 15.859" fill="white"/>
<path fill-rule="evenodd" clip-rule="evenodd" d="M8.77086 18.3894H6.68729C6.51013 18.3894 6.36676 18.541 6.36676 18.7182V20.8021C6.36676 20.9874 6.51013 21.1311 6.68729 21.1311H8.77086C8.95622 21.1311 9.09958 20.9874 9.09958 20.8021V18.7182C9.09958 18.541 8.95622 18.3894 8.77086 18.3894Z" fill="#888989"/>
<path d="M8.12945 19.2667C8.12945 19.2838 8.12945 19.3005 8.12945 19.3087C8.12945 19.3257 8.12945 19.334 8.12945 19.351C8.12092 19.3592 8.12092 19.3681 8.12092 19.3763C8.11271 19.3933 8.11272 19.4015 8.10419 19.4101L7.71642 20.3211C7.70789 20.3293 7.70789 20.3379 7.69936 20.3379C7.69116 20.3464 7.68263 20.3464 7.6741 20.3549C7.66557 20.3549 7.64883 20.3549 7.63209 20.3549C7.61503 20.3549 7.59831 20.3631 7.57305 20.3631C7.53926 20.3631 7.51366 20.3549 7.49692 20.3549C7.48019 20.3549 7.46314 20.3464 7.45494 20.3464C7.44608 20.3379 7.43788 20.3379 7.43788 20.3293C7.43788 20.3211 7.43788 20.3126 7.44608 20.3041L7.86797 19.3681H7.37063C7.35357 19.3681 7.34537 19.3592 7.33651 19.3428C7.32831 19.3258 7.32831 19.3005 7.32831 19.2667C7.32831 19.2496 7.32831 19.2332 7.32831 19.2162C7.33651 19.208 7.33651 19.1906 7.33651 19.1821C7.34537 19.1739 7.34537 19.1739 7.35357 19.1653C7.35357 19.1653 7.3621 19.1653 7.37063 19.1653H8.07893C8.08746 19.1653 8.09599 19.1653 8.10419 19.1653C8.11272 19.1653 8.11271 19.1739 8.12092 19.1821C8.12092 19.1906 8.12945 19.1994 8.12945 19.208C8.12945 19.2247 8.12945 19.2414 8.12945 19.2667" fill="white"/>
<path fill-rule="evenodd" clip-rule="evenodd" d="M7.79222 4.63179H15.8647V7.75305H7.75843V7.72746V4.66526V4.63179H7.79222ZM16.9444 3.36642H6.69549C6.51013 3.36642 6.36676 3.51012 6.36676 3.69548V8.51221C6.36676 8.69725 6.51013 8.84126 6.69549 8.84126H16.9444C17.1298 8.84126 17.2731 8.69725 17.2731 8.51221V3.69548C17.2731 3.51012 17.1298 3.36642 16.9444 3.36642" fill="#2D6BAB"/>
<path fill-rule="evenodd" clip-rule="evenodd" d="M7.40445 7.75305H16.345V4.63179H7.37067V4.66525V7.72746V7.75305H7.40445" fill="white"/>
<path fill-rule="evenodd" clip-rule="evenodd" d="M13.5283 6.03202L13.604 6.11633L13.6969 6.03202L13.8232 5.34897L13.6211 5.5176L13.5283 6.03202" fill="#100F0D"/>
<path fill-rule="evenodd" clip-rule="evenodd" d="M13.4774 5.31516H13.7979L13.5958 5.49232H13.4439L13.3678 5.39981L13.4774 5.31516" fill="#100F0D"/>
<path fill-rule="evenodd" clip-rule="evenodd" d="M13.5026 6.20063L13.604 6.11632L13.6716 6.20063L13.5535 6.82462L13.4603 6.91812L13.3845 6.82462L13.5026 6.20063Z" fill="#100F0D"/>
<path fill-rule="evenodd" clip-rule="evenodd" d="M14.9786 5.99854L15.0717 5.51759L15.0042 5.43327L14.9031 5.51759L14.8099 5.99854L14.886 6.08286L14.9786 5.99854" fill="#100F0D"/>
<path fill-rule="evenodd" clip-rule="evenodd" d="M14.9032 5.31516L14.9786 5.39981L14.8779 5.49232H14.397L14.3212 5.39981L14.4222 5.31516H14.9032Z" fill="#100F0D"/>
<path fill-rule="evenodd" clip-rule="evenodd" d="M14.7762 6.032L14.8527 6.11631L14.751 6.20062H14.2622L14.1946 6.11631L14.2956 6.032H14.7762" fill="#100F0D"/>
<path fill-rule="evenodd" clip-rule="evenodd" d="M14.2281 6.22591L14.1608 6.1416L14.0598 6.22591L13.9413 6.88402L14.1438 6.71539L14.2281 6.22591Z" fill="#100F0D"/>
<path fill-rule="evenodd" clip-rule="evenodd" d="M14.1693 6.74096H14.6499L14.7175 6.82461L14.6161 6.90926H13.9666L14.1693 6.74096Z" fill="#100F0D"/>
<path fill-rule="evenodd" clip-rule="evenodd" d="M15.8983 6.22592L15.831 6.14161L15.7293 6.22592L15.6453 6.7154L15.7129 6.79971L15.814 6.7154L15.8983 6.22592" fill="#100F0D"/>
<path fill-rule="evenodd" clip-rule="evenodd" d="M15.5781 6.90926H15.063L14.9875 6.82461L15.0971 6.74096H15.6115L15.6788 6.82461L15.5781 6.90926" fill="#100F0D"/>
<path fill-rule="evenodd" clip-rule="evenodd" d="M15.704 6.20062H15.1899L15.1141 6.11631L15.2234 6.032H15.7381L15.8057 6.11631L15.704 6.20062" fill="#100F0D"/>
<path fill-rule="evenodd" clip-rule="evenodd" d="M15.9405 5.99854L16.0249 5.51759L15.9573 5.43327L15.8562 5.51759L15.7719 5.99854L15.8392 6.08286L15.9405 5.99854Z" fill="#100F0D"/>
<path fill-rule="evenodd" clip-rule="evenodd" d="M15.3247 5.49232L15.2404 5.39981L15.35 5.31516H15.8647L15.932 5.39981L15.8309 5.49232H15.3247Z" fill="#100F0D"/>
</svg>
