<svg width="24" height="24" viewBox="0 0 24 24" fill="none" xmlns="http://www.w3.org/2000/svg">
<path fill-rule="evenodd" clip-rule="evenodd" d="M8.0441 10.4596C8.60146 10.7873 8.79002 11.5004 8.47034 12.058C8.1426 12.6152 7.42946 12.8036 6.87206 12.4842C6.31471 12.1644 6.12631 11.443 6.44595 10.8858C6.7655 10.3286 7.48687 10.1398 8.0441 10.4596" fill="#EA3336"/>
<path fill-rule="evenodd" clip-rule="evenodd" d="M11.003 5.66479C10.6095 5.44356 10.4783 4.95168 10.7079 4.5583C10.9293 4.17321 11.4209 4.04186 11.8063 4.2631C12.1914 4.49262 12.3224 4.9845 12.1015 5.36959C11.88 5.755 11.3881 5.88603 11.003 5.66479Z" fill="#2C6387"/>
<path fill-rule="evenodd" clip-rule="evenodd" d="M13.5931 6.05813C13.2077 5.82861 13.0767 5.33673 13.2979 4.95164C13.5274 4.56655 14.0193 4.43522 14.4044 4.65677C14.7898 4.878 14.9208 5.36956 14.6996 5.76326C14.4784 6.14835 13.9865 6.27937 13.5931 6.05813Z" fill="#EE9A11"/>
<path fill-rule="evenodd" clip-rule="evenodd" d="M15.4946 7.70561C15.1092 7.48438 14.9782 6.98451 15.1994 6.5991C15.4207 6.21401 15.9126 6.08268 16.2976 6.30392C16.6913 6.52547 16.8224 7.02533 16.5928 7.41074C16.3716 7.79582 15.8797 7.92684 15.4946 7.70561Z" fill="#6BA82E"/>
<path fill-rule="evenodd" clip-rule="evenodd" d="M16.2323 8.95969C16.4535 8.57428 16.9451 8.44326 17.3305 8.66449C17.7156 8.88573 17.8549 9.38589 17.6257 9.77098C17.4041 10.1561 16.9126 10.2874 16.5272 10.0662C16.1421 9.84463 16.0028 9.34478 16.2323 8.95969Z" fill="#5D9CC7"/>
<path fill-rule="evenodd" clip-rule="evenodd" d="M16.1338 11.1724C16.3554 10.7873 16.8552 10.6563 17.2403 10.8775C17.6257 11.107 17.7567 11.5989 17.5352 11.984C17.3143 12.3691 16.8141 12.5004 16.429 12.2792C16.0439 12.058 15.9126 11.5661 16.1338 11.1724Z" fill="#DE1D25"/>
<path fill-rule="evenodd" clip-rule="evenodd" d="M13.8634 12.3449C13.5191 10.8775 12.0767 10.7216 10.8392 11.4841C9.56864 12.2626 8.47843 14.32 6.74107 14.1233C5.10171 13.9349 4.8148 12.2709 5.09351 10.9349C5.39683 9.41047 5.82295 8.01707 6.56064 6.67309C9.06882 2.10749 12.4372 2.42723 15.5928 4.25513C18.5027 5.93511 20.1501 10.1398 18.0599 13.0414C17.3305 14.0494 15.4044 15.3774 14.2734 14.1724C13.8717 13.7462 13.9699 13.2464 13.9211 12.7134C13.9128 12.5823 13.888 12.4596 13.8634 12.3449V12.3449ZM8.04409 10.4596C7.48686 10.1398 6.76549 10.3286 6.44594 10.8858C6.1263 11.443 6.3147 12.1644 6.87206 12.4842C7.42945 12.8036 8.1426 12.6152 8.47034 12.058C8.79001 11.5004 8.60145 10.7873 8.04409 10.4596V10.4596ZM10.7079 4.5583C10.4783 4.95167 10.6096 5.44355 11.003 5.66479C11.3881 5.88602 11.88 5.75499 12.1015 5.36959C12.3224 4.9845 12.1914 4.49262 11.8063 4.26309C11.4209 4.04186 10.9293 4.17321 10.7079 4.5583ZM13.2979 4.95167C13.0767 5.33676 13.2077 5.82863 13.5931 6.05816C13.9865 6.27939 14.4784 6.14837 14.6996 5.76328C14.9208 5.36959 14.7898 4.87803 14.4044 4.65679C14.0193 4.43524 13.5274 4.56658 13.2979 4.95167ZM15.1994 6.59912C14.9782 6.98453 15.1092 7.48439 15.4946 7.70563C15.8797 7.92686 16.3716 7.79584 16.5928 7.41075C16.8224 7.02535 16.6913 6.52549 16.2976 6.30394C15.9126 6.0827 15.4207 6.21403 15.1994 6.59912ZM17.3305 8.66451C16.9451 8.44328 16.4535 8.5743 16.2323 8.95971C16.0028 9.3448 16.1421 9.84465 16.5272 10.0662C16.9126 10.2874 17.4041 10.1561 17.6257 9.771C17.8549 9.38591 17.7156 8.88575 17.3305 8.66451ZM17.2403 10.8775C16.8552 10.6563 16.3553 10.7873 16.1338 11.1724C15.9126 11.5661 16.0439 12.0579 16.429 12.2792C16.8141 12.5004 17.3142 12.3691 17.5352 11.984C17.7567 11.5989 17.6257 11.107 17.2403 10.8775Z" fill="#7FCC28"/>
<path fill-rule="evenodd" clip-rule="evenodd" d="M14.6913 8.14011C14.6913 8.14011 15.0273 9.93518 13.347 10.0334C11.675 10.1398 11.4292 12.189 11.4292 12.189L13.1258 13.6971C16.6254 11.8941 14.6913 8.14011 14.6913 8.14011" fill="#63C5EC"/>
<path fill-rule="evenodd" clip-rule="evenodd" d="M11.0603 12.6069L12.7652 14.1151C12.7652 14.1151 7.22448 20.3852 6.7655 20.7215C6.7655 20.7215 5.9623 20.9918 5.86392 20.1557C6.38035 19.074 11.0603 12.6069 11.0603 12.6069Z" fill="#C8871A"/>
</svg>
