<svg width="24" height="24" viewBox="0 0 24 24" fill="none" xmlns="http://www.w3.org/2000/svg">
<path fill-rule="evenodd" clip-rule="evenodd" d="M5.71421 15.9889C5.18393 15.9711 4.75092 15.5473 4.72446 15.0081C4.72446 14.9992 4.73338 14.9906 4.73338 14.9817C4.73338 14.9641 4.72446 14.9463 4.72446 14.9109C4.75985 14.3806 5.18393 13.9654 5.71421 13.9479V13.4441C5.71421 11.0851 5.7228 8.34577 5.7228 7.36494V7.09997C5.7228 7.0821 5.71421 7.05564 5.71421 7.02917C5.71421 5.74798 6.7569 4.71422 8.03775 4.71422H15.5397V3.36224C15.5397 3.15878 15.3806 3.00001 15.1778 3.00001H15.0891H9.91109H8.71856H5.74927C4.78631 3.00001 4 3.77738 4 4.74068C4 4.75821 4.00893 4.76715 4.00893 4.77608C4.00893 4.84653 4.00893 4.94379 4.00893 5.07645C4.00893 6.05728 4 8.79631 4 11.1559C4 11.3501 4 11.5357 4 11.7209C4 13.2499 3.99999 14.5225 4.00893 14.9109C4.00893 14.9287 4 14.9463 4 14.9727C4 15.1322 4.02646 15.2824 4.06185 15.4236C4.25603 16.1305 4.88357 16.6605 5.63449 16.7137C5.65236 16.7137 5.67021 16.7137 5.69668 16.7137H5.71421C5.71421 16.5192 5.71421 16.2718 5.71421 15.9889" fill="#80CC28"/>
<path fill-rule="evenodd" clip-rule="evenodd" d="M19.0829 19.2322H10.0792V19.5325H19.0829V19.2322Z" fill="#C6C1BF"/>
<path fill-rule="evenodd" clip-rule="evenodd" d="M19.0829 19.6294H10.0792V19.9298H19.0829V19.6294Z" fill="#C6C1BF"/>
<path fill-rule="evenodd" clip-rule="evenodd" d="M19.0829 20.0271H10.0792V20.3274H19.0829V20.0271Z" fill="#C6C1BF"/>
<path fill-rule="evenodd" clip-rule="evenodd" d="M19.0829 18.8342H10.0792V19.1346H19.0829V18.8342Z" fill="#C6C1BF"/>
<path fill-rule="evenodd" clip-rule="evenodd" d="M9.09835 16.9344H7.5697V17.2347H9.09835V16.9344Z" fill="#C6C1BF"/>
<path fill-rule="evenodd" clip-rule="evenodd" d="M9.09835 17.332H7.5697V17.6324H9.09835V17.332Z" fill="#C6C1BF"/>
<path fill-rule="evenodd" clip-rule="evenodd" d="M9.09835 17.7296H7.5697V18.0303H9.09835V17.7296Z" fill="#C6C1BF"/>
<path fill-rule="evenodd" clip-rule="evenodd" d="M9.09835 16.5371H7.5697V16.8375H9.09835V16.5371Z" fill="#C6C1BF"/>
<path fill-rule="evenodd" clip-rule="evenodd" d="M19.7545 19.2057C19.5513 19.2057 19.3922 19.3641 19.3922 19.5676V20.5663H10.3177C9.76952 20.5663 9.31931 20.1332 9.30179 19.5854C9.30179 19.5765 9.30179 19.5676 9.30179 19.559C9.30179 19.5411 9.30179 19.5146 9.30179 19.4792C9.32791 18.949 9.7788 18.5249 10.3177 18.5249H19.6661C19.6926 18.5249 19.7194 18.5163 19.7462 18.5073H19.7545C19.949 18.5073 20.117 18.3479 20.117 18.1541V7.93061C20.117 7.73609 19.949 7.56838 19.7545 7.56838H19.6661H14.4795H13.2956H10.3177C9.35437 7.56838 8.57733 8.35469 8.57733 9.31765C8.57733 9.32659 8.57733 9.34411 8.57733 9.35339C8.57733 9.41491 8.57733 9.5211 8.57733 9.65376C8.57733 10.6342 8.57733 13.3736 8.57733 15.7326C8.57733 15.9185 8.57733 16.113 8.57733 16.2982C8.57733 17.8272 8.57733 19.0995 8.57733 19.4792C8.57733 19.4971 8.57733 19.5232 8.57733 19.5411C8.57733 19.7002 8.59452 19.8504 8.63885 20.0006C8.82409 20.7075 9.45197 21.2378 10.2118 21.2818C10.2293 21.2818 10.2472 21.2907 10.2647 21.2907H19.7545C19.949 21.2907 20.117 21.123 20.117 20.9281V19.5676C20.117 19.3641 19.949 19.2057 19.7545 19.2057" fill="#F1439F"/>
<path fill-rule="evenodd" clip-rule="evenodd" d="M6.99539 14.584H5.33411V14.8758H6.99539V14.584Z" fill="#C6C1BF"/>
<path fill-rule="evenodd" clip-rule="evenodd" d="M6.99539 14.9816H5.33411V15.2734H6.99539V14.9816Z" fill="#C6C1BF"/>
<path fill-rule="evenodd" clip-rule="evenodd" d="M6.99539 15.3793H5.33411V15.6707H6.99539V15.3793Z" fill="#C6C1BF"/>
<path fill-rule="evenodd" clip-rule="evenodd" d="M6.99539 14.1864H5.33411V14.4782H6.99539V14.1864Z" fill="#C6C1BF"/>
<path fill-rule="evenodd" clip-rule="evenodd" d="M8.00279 18.2774C7.46357 18.2599 7.03949 17.8358 7.01303 17.297C7.01303 17.2877 7.01303 17.2791 7.01303 17.2705C7.01303 17.2526 7.01303 17.2262 7.01303 17.1997C7.04843 16.6694 7.47251 16.2543 8.00279 16.2364V15.7326C8.00279 13.3736 8.0028 10.6343 8.01173 9.64483V9.38845C8.0028 9.36199 8.00279 9.33553 8.00279 9.31766C8.00279 8.03681 9.04549 7.00271 10.3177 7.00271H17.8286V5.64213C17.8286 5.44727 17.6695 5.2799 17.4664 5.2799H17.3777H12.1911H11.0071H8.03784C7.07523 5.2799 6.28857 6.06622 6.28857 7.02918C6.28857 7.03811 6.28858 7.05564 6.29752 7.06458C6.29752 7.12644 6.28857 7.23263 6.28857 7.36494C6.28857 8.34577 6.28857 11.0851 6.28857 13.4441C6.28857 13.6386 6.28857 13.8242 6.28857 14.0094C6.28857 15.5387 6.28857 16.811 6.28857 17.1908C6.28857 17.2172 6.28857 17.2347 6.28857 17.2526C6.28857 17.4117 6.30609 17.5619 6.35043 17.7121C6.54494 18.419 7.16321 18.949 7.92306 18.9929C7.94093 19.0022 7.9588 19.0022 7.97632 19.0022H8.00279C8.00279 18.7991 8.00279 18.5606 8.00279 18.2774" fill="#F9C50F"/>
</svg>
