<svg width="24" height="24" viewBox="0 0 24 24" fill="none" xmlns="http://www.w3.org/2000/svg">
<path fill-rule="evenodd" clip-rule="evenodd" d="M3.81296 5.69929L20.1124 16.312L20.9482 15.0391C21.046 14.8885 21.0009 14.6849 20.8503 14.5874L20.1124 14.1128L19.5022 15.0467C19.4568 15.1217 19.3516 15.1446 19.2763 15.0995L19.1407 15.0089C19.0654 14.9562 19.0501 14.8584 19.0956 14.7831L19.7055 13.8415L18.7264 13.2088L18.2897 13.8717C18.2442 13.947 18.1388 13.9696 18.0708 13.9244L17.9355 13.8339C17.8602 13.7812 17.8376 13.6833 17.8827 13.608L18.3195 12.9378L17.3405 12.305L16.7303 13.2389C16.6775 13.3142 16.5797 13.3368 16.5044 13.2917L16.3688 13.2014C16.2935 13.156 16.2709 13.0509 16.3237 12.9753L16.9336 12.0337L15.9545 11.4013L15.5178 12.0639C15.465 12.1392 15.3669 12.1618 15.2919 12.1166L15.1563 12.0261C15.0807 11.9734 15.0581 11.8755 15.1109 11.8003L15.5476 11.13L14.561 10.4972L13.9511 11.4311C13.906 11.5067 13.8005 11.5293 13.7249 11.4839L13.5896 11.3936C13.5143 11.3409 13.499 11.2431 13.5442 11.1675L14.1544 10.2262L13.1753 9.59346L12.7383 10.2561C12.6931 10.3314 12.5877 10.354 12.52 10.3088L12.3844 10.2186C12.3091 10.1659 12.2862 10.0678 12.3316 9.99276L12.7684 9.3222L11.7894 8.68972L11.1792 9.62334C11.1264 9.69893 11.0286 9.72148 10.9533 9.67637L10.8177 9.58585C10.7424 9.53312 10.7198 9.43528 10.7649 9.35999L11.3825 8.41845L10.4034 7.78567L9.96666 8.44861C9.91393 8.5239 9.81609 8.54647 9.7405 8.50135L9.60516 8.41084C9.52987 8.35811 9.50702 8.26025 9.55975 8.18496L9.99654 7.51469L9.00988 6.88192L8.39997 7.81585C8.35456 7.89114 8.24939 7.91369 8.17381 7.86858L8.03817 7.77835C7.96318 7.72562 7.94794 7.62748 7.99335 7.55248L8.60327 6.61065L7.62394 5.97818L7.18715 6.64082C7.14204 6.7164 7.03658 6.73897 6.96129 6.69356L6.83327 6.60333C6.75798 6.5506 6.73543 6.45275 6.78054 6.37717L7.21733 5.7069L6.238 5.07413L5.62807 6.00835C5.57534 6.08334 5.4775 6.1059 5.40221 6.06079L5.26658 5.97056C5.19129 5.91783 5.16873 5.81969 5.21385 5.74469L5.83138 4.80315L5.09344 4.32858C4.94257 4.23073 4.73927 4.27556 4.64904 4.41881L3.81296 5.69929" fill="#B4DC18"/>
<path fill-rule="evenodd" clip-rule="evenodd" d="M19.3214 17.5248L3.02961 6.9118C2.96164 7.05505 3.01438 7.22848 3.15001 7.31871L18.9069 17.5775C19.0425 17.6677 19.216 17.6376 19.3214 17.5248Z" fill="#83B32D"/>
<path fill-rule="evenodd" clip-rule="evenodd" d="M3.02963 6.91182L19.3214 17.5248C19.3364 17.5096 19.344 17.4943 19.3516 17.4794L20.1124 16.312L3.81298 5.69931L3.05219 6.86701C3.04457 6.88195 3.03696 6.89688 3.02963 6.91182" fill="#69A02E"/>
<path fill-rule="evenodd" clip-rule="evenodd" d="M5.20621 6.47503C5.25894 6.69357 5.11598 6.90448 4.89744 6.9496C4.67919 6.99501 4.46827 6.85937 4.42286 6.64083C4.37775 6.42258 4.51338 6.21137 4.73163 6.16654C4.95017 6.12114 5.16109 6.25678 5.20621 6.47503Z" fill="white"/>
<path fill-rule="evenodd" clip-rule="evenodd" d="M5.62808 6.00837L6.238 5.07415L5.83138 4.80318L5.21385 5.74472C5.16873 5.81971 5.19129 5.91785 5.26658 5.97058L5.40221 6.06081C5.4775 6.10593 5.57534 6.08337 5.62808 6.00837" fill="#4D4E51"/>
<path fill-rule="evenodd" clip-rule="evenodd" d="M7.21734 5.70693L6.78056 6.3772C6.73544 6.45278 6.758 6.55063 6.83329 6.60336L6.96131 6.69359C7.03659 6.739 7.14206 6.71644 7.18717 6.64085L7.62396 5.97821L7.21734 5.70693Z" fill="#4D4E51"/>
<path fill-rule="evenodd" clip-rule="evenodd" d="M8.60327 6.61067L7.99335 7.5525C7.94794 7.6275 7.96318 7.72563 8.03817 7.77836L8.17381 7.86859C8.24939 7.91371 8.35456 7.89116 8.39997 7.81587L9.00988 6.88193L8.60327 6.61067" fill="#4D4E51"/>
<path fill-rule="evenodd" clip-rule="evenodd" d="M9.99652 7.5147L9.55973 8.18497C9.507 8.26026 9.52985 8.35812 9.60514 8.41085L9.74048 8.50136C9.81606 8.54648 9.91391 8.52391 9.96664 8.44862L10.4034 7.78568L9.99652 7.5147Z" fill="#4D4E51"/>
<path fill-rule="evenodd" clip-rule="evenodd" d="M11.3825 8.41845L10.7649 9.36C10.7198 9.43529 10.7424 9.53313 10.8177 9.58586L10.9533 9.67638C11.0286 9.72149 11.1264 9.69893 11.1792 9.62335L11.7894 8.68973L11.3825 8.41845" fill="#4D4E51"/>
<path fill-rule="evenodd" clip-rule="evenodd" d="M12.7684 9.3222L12.3316 9.99276C12.2862 10.0678 12.3091 10.1659 12.3844 10.2186L12.52 10.3088C12.5877 10.354 12.6931 10.3314 12.7382 10.2561L13.1753 9.59346L12.7684 9.3222" fill="#4D4E51"/>
<path fill-rule="evenodd" clip-rule="evenodd" d="M15.5477 11.13L15.1109 11.8003C15.0581 11.8756 15.0807 11.9734 15.1563 12.0261L15.2919 12.1167C15.3669 12.1618 15.465 12.1392 15.5178 12.0639L15.9546 11.4013L15.5477 11.13" fill="#4D4E51"/>
<path fill-rule="evenodd" clip-rule="evenodd" d="M16.9336 12.0338L16.3237 12.9753C16.2709 13.0509 16.2935 13.1561 16.3688 13.2015L16.5044 13.2917C16.5797 13.3368 16.6776 13.3143 16.7303 13.239L17.3405 12.305L16.9336 12.0338Z" fill="#4D4E51"/>
<path fill-rule="evenodd" clip-rule="evenodd" d="M18.3195 12.9378L17.8827 13.6081C17.8376 13.6833 17.8602 13.7812 17.9355 13.8339L18.0708 13.9244C18.1388 13.9696 18.2442 13.947 18.2896 13.8717L18.7264 13.2088L18.3195 12.9378Z" fill="#4D4E51"/>
<path fill-rule="evenodd" clip-rule="evenodd" d="M19.7055 13.8415L19.0955 14.7831C19.0501 14.8584 19.0654 14.9562 19.1407 15.0089L19.2763 15.0995C19.3516 15.1446 19.4567 15.1217 19.5022 15.0467L20.1124 14.1128L19.7055 13.8415Z" fill="#4D4E51"/>
<path fill-rule="evenodd" clip-rule="evenodd" d="M14.1544 10.2262L13.5441 11.1675C13.499 11.2431 13.5143 11.3409 13.5895 11.3936L13.7249 11.4839C13.8005 11.5293 13.9059 11.5067 13.951 11.4311L14.561 10.4972L14.1544 10.2262Z" fill="#4D4E51"/>
<path fill-rule="evenodd" clip-rule="evenodd" d="M15.5705 4.26825L7.06674 16.6811L7.82753 17.2081L16.3386 4.79556C16.3764 4.73521 16.3989 4.67486 16.4142 4.60719L15.7287 4.12499C15.6683 4.16278 15.608 4.2079 15.5705 4.26825Z" fill="#FABA11"/>
<path fill-rule="evenodd" clip-rule="evenodd" d="M18.0784 5.96297L9.55975 18.3911L10.1246 18.7824L18.1915 7.00997C18.4402 6.64085 18.4101 6.16657 18.154 5.83495L18.1388 5.82733C18.1315 5.87273 18.1086 5.92518 18.0784 5.96297Z" fill="#E1A812"/>
<path fill-rule="evenodd" clip-rule="evenodd" d="M7.06676 16.6811L15.5705 4.26825C15.608 4.2079 15.6683 4.16278 15.7287 4.12499L15.6909 4.10274C15.2843 3.89181 14.7719 4.01221 14.5083 4.40388L6.40381 16.2291L7.02164 16.6509L7.06676 16.6811" fill="#F8E533"/>
<path fill-rule="evenodd" clip-rule="evenodd" d="M17.3027 5.43564L8.7916 17.8637L9.58227 18.406L18.1012 5.97818C18.1314 5.94039 18.1314 5.87271 18.1387 5.8273L17.4307 5.32285C17.3856 5.35303 17.3405 5.39053 17.3027 5.43564" fill="#E1A812"/>
<path fill-rule="evenodd" clip-rule="evenodd" d="M8.79895 17.8711L17.3103 5.44328C17.3405 5.39054 17.3856 5.35305 17.4307 5.32288L16.4142 4.6072C16.3989 4.67487 16.316 4.68249 16.2785 4.73522L7.77451 17.1481L8.79895 17.8711" fill="#FABA11"/>
<path fill-rule="evenodd" clip-rule="evenodd" d="M6.3663 18.9482L7.57912 17.4193L6.22305 16.4851L6.23799 18.8653L6.3663 18.9482" fill="#EDB373"/>
<path fill-rule="evenodd" clip-rule="evenodd" d="M8.8294 18.2704L7.60898 19.8069L7.68426 19.8596L9.93646 19.0311L8.8294 18.2704" fill="#EDB373"/>
<path fill-rule="evenodd" clip-rule="evenodd" d="M7.57912 17.4193L6.3663 18.9482L7.609 19.8069L8.82943 18.2703L7.57912 17.4193Z" fill="#F2C38E"/>
<path fill-rule="evenodd" clip-rule="evenodd" d="M7.15725 19.4905L6.62994 20.2437L7.68427 19.8596L7.60899 19.8069L7.15725 19.4905" fill="#1B1919"/>
<path fill-rule="evenodd" clip-rule="evenodd" d="M6.62998 20.2437L7.17223 19.5057L6.80312 19.2497L6.24564 20.0102L6.25325 20.3793L6.62998 20.2437" fill="#272626"/>
<path fill-rule="evenodd" clip-rule="evenodd" d="M6.23798 19.0991L6.36628 18.9482L6.23798 18.8653V19.0991Z" fill="#1B1919"/>
<path fill-rule="evenodd" clip-rule="evenodd" d="M6.24559 20.0178L6.8104 19.257L6.36628 18.9482L6.23798 19.0991L6.24559 20.0178" fill="#1B1919"/>
</svg>
