<svg width="24" height="24" viewBox="0 0 24 24" fill="none" xmlns="http://www.w3.org/2000/svg">
<path fill-rule="evenodd" clip-rule="evenodd" d="M11.938 5.11643H12.07C12.07 5.22737 12.5834 5.3178 12.7707 5.12345C13.0277 4.8457 13.4717 5.12345 13.4717 5.12345V5.90758C13.4717 5.90758 13.1111 5.60931 12.7707 5.90758C12.514 6.13675 12.2157 6.01178 12.0837 5.94241C12.0837 6.04633 12.0837 6.37267 12.0908 6.58078H11.959C11.945 6.12973 11.938 5.64386 11.938 5.11643Z" fill="#C0C1B6"/>
<path fill-rule="evenodd" clip-rule="evenodd" d="M12.0979 6.55997C12.5905 6.60856 13.132 7.05287 14.6587 7.90638C14.8115 7.98952 14.9014 8.14229 14.9014 8.31586V10.1133H17.8719C18.219 10.1133 18.4965 10.3978 18.4965 10.7447V17.4836L18.4895 18.8578L12.9236 18.8441V16.533H11.0845V18.8441L5.53244 18.8371L5.51862 18.0599L5.53244 17.3657V10.7447C5.53244 10.3978 5.8168 10.1133 6.15707 10.1133H9.13437V8.31586C9.13437 8.14229 9.22453 7.98952 9.37037 7.90638C10.8763 7.06664 11.4245 6.62233 11.9103 6.567C11.9729 6.55998 12.0353 6.55997 12.0979 6.55997" fill="#EDF7C2"/>
<path fill-rule="evenodd" clip-rule="evenodd" d="M2.04851 11.8484H5.50462C5.51863 11.8484 5.52549 11.8622 5.52549 11.8762V18.8371H2V11.904C2 11.8762 2.02076 11.8484 2.04851 11.8484" fill="#DDE3A3"/>
<path fill-rule="evenodd" clip-rule="evenodd" d="M2.41632 13.3684H3.36023V14.1177H2.41632V13.3684Z" fill="#82BFC8"/>
<path fill-rule="evenodd" clip-rule="evenodd" d="M4.08203 13.3684H5.02583V14.1177H4.08203V13.3684Z" fill="#82BFC8"/>
<path fill-rule="evenodd" clip-rule="evenodd" d="M2.45795 14.9645H3.40194V15.7208H2.45795V14.9645Z" fill="#82BFC8"/>
<path fill-rule="evenodd" clip-rule="evenodd" d="M4.1236 14.9645H5.0675V15.7208H4.1236V14.9645Z" fill="#82BFC8"/>
<path fill-rule="evenodd" clip-rule="evenodd" d="M2.50647 16.5678H3.45035V17.3171H2.50647V16.5678Z" fill="#82BFC8"/>
<path fill-rule="evenodd" clip-rule="evenodd" d="M4.16534 16.5678H5.10912V17.3171H4.16534V16.5678" fill="#82BFC8"/>
<path fill-rule="evenodd" clip-rule="evenodd" d="M18.5102 11.8484H21.9737C21.9942 11.8484 22.015 11.8692 22.015 11.89V18.8371H18.4824V11.8762C18.4824 11.8622 18.4965 11.8484 18.5102 11.8484" fill="#DDE3A3"/>
<path fill-rule="evenodd" clip-rule="evenodd" d="M18.8989 13.3684H19.8431V14.1177H18.8989V13.3684Z" fill="#83C6D0"/>
<path fill-rule="evenodd" clip-rule="evenodd" d="M20.5647 13.3684H21.5084V14.1177H20.5647V13.3684Z" fill="#83C6D0"/>
<path fill-rule="evenodd" clip-rule="evenodd" d="M18.9478 14.9645H19.8914V15.7208H18.9478V14.9645Z" fill="#83C6D0"/>
<path fill-rule="evenodd" clip-rule="evenodd" d="M20.6133 14.9645H21.5572V15.7208H20.6133V14.9645Z" fill="#83C6D0"/>
<path fill-rule="evenodd" clip-rule="evenodd" d="M18.989 16.5678H19.933V17.3171H18.989V16.5678Z" fill="#83C6D0"/>
<path fill-rule="evenodd" clip-rule="evenodd" d="M20.6549 16.5678H21.5988V17.3171H20.6549V16.5678Z" fill="#83C6D0"/>
<path fill-rule="evenodd" clip-rule="evenodd" d="M11.0845 18.8441H12.9236V16.533H11.0845V18.8441" fill="#C8A860"/>
<path fill-rule="evenodd" clip-rule="evenodd" d="M14.277 19.1564C14.277 19.1842 14.2492 19.212 14.2214 19.212H9.75207C9.72435 19.212 9.69641 19.1842 9.69641 19.1564V19.0174C9.69641 18.9828 9.72435 18.962 9.75207 18.962H14.2214C14.2492 18.962 14.277 18.9828 14.277 19.0174V19.1564Z" fill="#D7D8CD"/>
<path fill-rule="evenodd" clip-rule="evenodd" d="M14.6309 19.5381C14.6309 19.5659 14.6101 19.5937 14.5753 19.5937H9.43963C9.40505 19.5937 9.38416 19.5659 9.38416 19.5381V19.3923C9.38416 19.3645 9.40505 19.3367 9.43963 19.3367H14.5753C14.6101 19.3367 14.6309 19.3645 14.6309 19.3923V19.5381Z" fill="#D7D8CD"/>
<path fill-rule="evenodd" clip-rule="evenodd" d="M12.0145 7.94795C11.3968 7.94795 10.9041 8.44787 10.9041 9.06546C10.9041 9.68305 11.3968 10.1827 12.0145 10.1827C12.6321 10.1827 13.132 9.68305 13.132 9.06546C13.132 8.44787 12.6321 7.94795 12.0145 7.94795Z" fill="#E69813"/>
<path fill-rule="evenodd" clip-rule="evenodd" d="M12.0145 9.96056C11.5216 9.96056 11.1262 9.5581 11.1262 9.06549C11.1262 8.57287 11.5216 8.17715 12.0145 8.17715C12.5071 8.17715 12.9096 8.57287 12.9096 9.06549C12.9096 9.5581 12.5071 9.96056 12.0145 9.96056Z" fill="white"/>
<path fill-rule="evenodd" clip-rule="evenodd" d="M11.4733 8.45461L11.6396 8.62117L11.5705 8.6908L11.4038 8.52399L11.4733 8.45461Z" fill="#46464A"/>
<path fill-rule="evenodd" clip-rule="evenodd" d="M11.9659 8.2465H12.0701V8.48242H11.9659V8.2465Z" fill="#46464A"/>
<path fill-rule="evenodd" clip-rule="evenodd" d="M12.0701 9.88443H11.9659V9.64824H12.0701V9.88443Z" fill="#46464A"/>
<path fill-rule="evenodd" clip-rule="evenodd" d="M11.4733 9.68306L11.4038 9.60667L11.5705 9.44013L11.6396 9.50949L11.4733 9.68306Z" fill="#46464A"/>
<path fill-rule="evenodd" clip-rule="evenodd" d="M12.4032 8.78771C12.3961 8.77395 12.3824 8.77395 12.3683 8.78097L12.063 8.99583C12.049 8.98908 12.0423 8.98908 12.0282 8.98908C12.0212 8.98908 12.0212 8.98908 12.0145 8.98908L11.7993 8.80876C11.7853 8.79473 11.7715 8.79473 11.7575 8.80876L11.7437 8.82955C11.73 8.84331 11.73 8.85708 11.7437 8.87112L11.9591 9.05143V9.05845C11.9591 9.09327 11.9867 9.12081 12.0212 9.12783V9.52353H12.0423V9.12783C12.0771 9.12081 12.0979 9.09327 12.0979 9.05845C12.0979 9.05143 12.0979 9.05143 12.0979 9.05143L12.4032 8.83657C12.4169 8.82254 12.4169 8.80876 12.4099 8.79473L12.4032 8.78771Z" fill="#351C14"/>
<path fill-rule="evenodd" clip-rule="evenodd" d="M11.4386 9.01687V9.11404H11.1956V9.01687H11.4386Z" fill="#46464A"/>
<path fill-rule="evenodd" clip-rule="evenodd" d="M12.8334 9.01687V9.11404H12.5975V9.01687H12.8334Z" fill="#46464A"/>
<path fill-rule="evenodd" clip-rule="evenodd" d="M12.4655 9.44013L12.632 9.60667L12.5556 9.68306L12.3891 9.50949L12.4655 9.44013Z" fill="#46464A"/>
<path fill-rule="evenodd" clip-rule="evenodd" d="M12.5556 8.45461L12.632 8.52399L12.4655 8.6908L12.3891 8.62117L12.5556 8.45461Z" fill="#46464A"/>
<path fill-rule="evenodd" clip-rule="evenodd" d="M15.8663 12.4244H17.3515V13.6043H15.8663V12.4244Z" fill="#83C6D0"/>
<path fill-rule="evenodd" clip-rule="evenodd" d="M13.8815 14.1317H15.3597V15.3115H13.8815V14.1317Z" fill="#83C6D0"/>
<path fill-rule="evenodd" clip-rule="evenodd" d="M15.8663 14.1317H17.3515V15.3115H15.8663V14.1317Z" fill="#83C6D0"/>
<path fill-rule="evenodd" clip-rule="evenodd" d="M13.8815 12.4244H15.3597V13.6043H13.8815V12.4244Z" fill="#83C6D0"/>
<path fill-rule="evenodd" clip-rule="evenodd" d="M13.8815 15.839H15.3597V17.0188H13.8815V15.839Z" fill="#83C6D0"/>
<path fill-rule="evenodd" clip-rule="evenodd" d="M15.8663 15.839H17.3515V17.0188H15.8663V15.839Z" fill="#83C6D0"/>
<path fill-rule="evenodd" clip-rule="evenodd" d="M8.65552 12.4244H10.1408V13.6043H8.65552V12.4244Z" fill="#83C6D0"/>
<path fill-rule="evenodd" clip-rule="evenodd" d="M6.6637 14.1317H8.14883V15.3115H6.6637V14.1317Z" fill="#83C6D0"/>
<path fill-rule="evenodd" clip-rule="evenodd" d="M8.65552 14.1317H10.1408V15.3115H8.65552V14.1317Z" fill="#83C6D0"/>
<path fill-rule="evenodd" clip-rule="evenodd" d="M6.6637 12.4244H8.14883V13.6043H6.6637V12.4244Z" fill="#83C6D0"/>
<path fill-rule="evenodd" clip-rule="evenodd" d="M6.6637 15.839H8.14883V17.0188H6.6637V15.839Z" fill="#83C6D0"/>
<path fill-rule="evenodd" clip-rule="evenodd" d="M8.65552 15.839H10.1408V17.0188H8.65552V15.839Z" fill="#83C6D0"/>
</svg>
