<svg width="24" height="24" viewBox="0 0 24 24" fill="none" xmlns="http://www.w3.org/2000/svg">
<path fill-rule="evenodd" clip-rule="evenodd" d="M7.9844 16.2763C9.80015 16.2688 14.0863 16.2546 14.5989 16.2974C14.7199 16.3117 14.8196 16.504 14.8766 16.746C14.9121 16.8883 14.9265 17.0378 14.9265 17.1805C14.9193 17.3227 14.8979 17.4651 14.8622 17.5861C14.8055 17.7642 14.7199 17.8924 14.5917 17.8924C13.9866 17.9065 9.76443 17.8639 7.97028 17.8426L7.9844 16.2763" fill="white"/>
<path fill-rule="evenodd" clip-rule="evenodd" d="M14.5989 16.2974C14.0863 16.2546 9.80014 16.2688 7.98439 16.2763L7.97027 17.8426C9.76442 17.8639 13.9866 17.9065 14.5917 17.8924C14.7199 17.8924 14.8054 17.7642 14.8622 17.5861C14.8979 17.4651 14.9193 17.3227 14.9265 17.1805C14.9265 17.0378 14.9121 16.8883 14.8766 16.7459C14.8196 16.504 14.7199 16.3117 14.5989 16.2974V16.2974ZM7.16554 15.8562C7.18714 15.8562 13.9722 15.8204 14.6343 15.8776C14.9691 15.9058 15.197 16.2402 15.2964 16.6535C15.3321 16.8246 15.3535 17.0096 15.3465 17.1873C15.3465 17.3726 15.318 17.5576 15.2682 17.7143C15.1613 18.0629 14.9406 18.3125 14.5989 18.3194C13.8299 18.3338 7.17274 18.2626 7.15142 18.2626C6.93791 18.1914 6.95924 17.9065 7.15862 17.8353L7.54298 17.8426L7.55711 16.2835H7.16554C6.98056 16.1478 6.97364 16.0054 7.16554 15.8562" fill="#6AB2C0"/>
<path fill-rule="evenodd" clip-rule="evenodd" d="M14.5989 16.6535H8.20511V16.3616H14.5989V16.6535Z" fill="#C6C1BF"/>
<path fill-rule="evenodd" clip-rule="evenodd" d="M8.20511 16.7459H14.5989V17.0378H8.20511V16.7459Z" fill="#C6C1BF"/>
<path fill-rule="evenodd" clip-rule="evenodd" d="M8.20511 17.1378H14.5989V17.4225H8.20511V17.1378" fill="#C6C1BF"/>
<path fill-rule="evenodd" clip-rule="evenodd" d="M8.20511 17.5219H14.5989V17.814H8.20511V17.5219Z" fill="#C6C1BF"/>
<path fill-rule="evenodd" clip-rule="evenodd" d="M9.31581 18.9604H8.92424C8.73898 18.8322 8.73206 18.6899 8.92424 18.5401C8.94584 18.5401 15.7309 18.4977 16.393 18.5545C16.7278 18.5827 16.9554 18.9173 17.0551 19.3307C17.0908 19.5015 17.1122 19.6866 17.105 19.8718C17.105 20.0571 17.0764 20.2346 17.0266 20.3985C16.92 20.74 16.6993 20.9894 16.3573 20.9963C15.5886 21.0176 8.93144 20.9395 8.91012 20.9395C8.69662 20.8756 8.71766 20.5907 8.91012 20.5195H9.29449L9.31581 18.9604ZM16.3504 18.9817C15.845 18.9391 11.5586 18.9533 9.74309 18.9604L9.72177 20.5264C11.5231 20.5481 15.7309 20.5624 16.329 20.5481C16.4573 20.5481 16.5639 20.4411 16.6209 20.2706C16.6564 20.1496 16.6777 20.0069 16.6849 19.8643C16.6849 19.7148 16.6708 19.5655 16.6353 19.4301C16.5783 19.1809 16.4783 18.9887 16.3504 18.9817Z" fill="#D5B214"/>
<path fill-rule="evenodd" clip-rule="evenodd" d="M9.50799 18.7254C11.3309 18.7185 15.845 18.7041 16.3504 18.7467C16.4783 18.7611 16.8131 19.1809 16.8701 19.4301C16.8987 19.5655 16.9128 19.7148 16.9128 19.8643C16.9128 20.0069 16.8912 20.1496 16.8488 20.2706C16.7987 20.4411 16.4714 20.5694 16.3504 20.5768C15.745 20.5838 11.2952 20.5481 9.49387 20.5264L9.50799 18.7254ZM9.9638 19.3307H16.3573V19.0458H9.9638V19.3307ZM9.9638 19.7148H16.3573V19.4301H9.9638V19.7148ZM16.3573 20.2063H9.9638V20.4909H16.3573V20.2063ZM16.3573 20.1066V19.8148H9.9638V20.1066H16.3573Z" fill="#D5B214"/>
<path fill-rule="evenodd" clip-rule="evenodd" d="M9.96381 19.4301H16.3573V19.7148H9.96381V19.4301Z" fill="#C6C1BF"/>
<path fill-rule="evenodd" clip-rule="evenodd" d="M9.96381 19.8148H16.3573V20.1066H9.96381V19.8148Z" fill="#C6C1BF"/>
<path fill-rule="evenodd" clip-rule="evenodd" d="M9.96381 20.2063H16.3573V20.4909H9.96381V20.2063Z" fill="#C6C1BF"/>
<path fill-rule="evenodd" clip-rule="evenodd" d="M9.96381 19.0458H16.3573V19.3307H9.96381V19.0458Z" fill="#C6C1BF"/>
<path fill-rule="evenodd" clip-rule="evenodd" d="M15.9089 15.5854C15.1399 15.5998 8.48283 15.5286 8.46151 15.5286C8.248 15.4572 8.26932 15.1725 8.46843 15.1013L8.84587 15.1086L8.86719 13.5492H8.47563C8.29065 13.4137 8.28345 13.2715 8.47563 13.1222C8.49695 13.1222 15.2823 13.0789 15.9444 13.1435C16.2792 13.1718 16.5068 13.4993 16.6065 13.9198C16.6422 14.0904 16.6636 14.2755 16.6564 14.4534C16.6564 14.6384 16.6278 14.8235 16.5783 14.9806C16.4714 15.3289 16.2507 15.5785 15.9089 15.5854ZM15.9017 13.5633C15.3964 13.5207 11.1102 13.5348 9.29448 13.542L9.27316 15.1086C11.0745 15.1299 15.2964 15.1725 15.9017 15.1581C16.0228 15.1581 16.1155 15.0301 16.1723 14.8521C16.208 14.731 16.2291 14.5888 16.2363 14.4464C16.2363 14.3038 16.2221 14.147 16.1867 14.0122C16.1297 13.7699 16.03 13.5774 15.9017 13.5633" fill="#B21D23"/>
<path fill-rule="evenodd" clip-rule="evenodd" d="M9.29449 13.542C11.1102 13.5348 15.3964 13.5207 15.9018 13.5633C16.03 13.5774 16.1297 13.7699 16.1867 14.0122C16.2222 14.147 16.2363 14.3038 16.2363 14.4464C16.2291 14.5888 16.208 14.731 16.1723 14.8521C16.1155 15.0301 16.0228 15.1581 15.9018 15.1581C15.2964 15.1725 11.0745 15.1299 9.27316 15.1086L9.29449 13.542" fill="white"/>
<path d="M13.0894 13.5633C11.7438 13.5633 10.2343 13.5633 9.3158 13.5705L9.30168 15.0869C10.2058 15.0942 11.6937 15.1086 13.0395 15.1226C14.3925 15.1299 15.5958 15.1368 15.8945 15.1299C15.9516 15.1299 15.9942 15.1013 16.0369 15.0587C16.0798 15.0089 16.1225 14.9305 16.1438 14.8449C16.1651 14.7878 16.1795 14.7241 16.1867 14.6597C16.2008 14.5888 16.208 14.5176 16.208 14.4465C16.208 14.375 16.2008 14.3038 16.1936 14.2257C16.1867 14.1545 16.1795 14.0904 16.1651 14.0192C16.1366 13.8912 16.0939 13.784 16.0441 13.7059C16.0014 13.642 15.9516 13.5987 15.9017 13.5918C15.6453 13.5705 14.4493 13.5633 13.0894 13.5633ZM9.29448 13.5138C10.1986 13.5138 11.7294 13.5062 13.0894 13.5062C14.4493 13.5062 15.6525 13.5138 15.9089 13.5348C15.9801 13.542 16.0369 13.5918 16.0867 13.6777C16.1438 13.7627 16.1867 13.8768 16.2149 14.0047C16.2291 14.0759 16.2437 14.1471 16.2507 14.2257C16.2579 14.2969 16.2648 14.375 16.2579 14.4465C16.2579 14.5246 16.2507 14.5956 16.2437 14.6668C16.2291 14.731 16.2149 14.8022 16.2008 14.8593C16.1651 14.959 16.1297 15.0374 16.0726 15.0942C16.03 15.1512 15.9657 15.1867 15.9017 15.1867C15.5958 15.1938 14.3925 15.1867 13.0395 15.1725C11.6796 15.1656 10.1773 15.144 9.27315 15.1368H9.25183V15.1086L9.26595 13.542V13.5138H9.29448" fill="#B21D23"/>
<path fill-rule="evenodd" clip-rule="evenodd" d="M15.909 13.9122H9.5152V13.6276H15.909V13.9122Z" fill="#C6C1BF"/>
<path fill-rule="evenodd" clip-rule="evenodd" d="M9.5152 14.0122H15.909V14.3038H9.5152V14.0122Z" fill="#C6C1BF"/>
<path fill-rule="evenodd" clip-rule="evenodd" d="M9.5152 14.4035H15.909V14.6884H9.5152V14.4035Z" fill="#C6C1BF"/>
<path fill-rule="evenodd" clip-rule="evenodd" d="M9.5152 14.7878H15.909V15.0731H9.5152V14.7878Z" fill="#C6C1BF"/>
<path fill-rule="evenodd" clip-rule="evenodd" d="M14.0791 2.83386C11.9643 1.88679 9.48668 2.83386 8.53989 4.94145C7.59283 7.05575 8.53989 9.53365 10.6544 10.4807C12.769 11.4275 15.2466 10.4807 16.1867 8.36616C17.1335 6.25131 16.1867 3.77344 14.0791 2.83386Z" fill="#6AB2C0"/>
<path fill-rule="evenodd" clip-rule="evenodd" d="M14.3782 10.3312C15.0688 9.95368 15.6597 9.37692 16.0585 8.63638H16.0087L15.9801 8.66493L15.9444 8.65076C15.9444 8.65076 15.9159 8.65801 15.9018 8.62946C15.8874 8.60121 15.909 8.60121 15.8804 8.58684C15.8519 8.57959 15.8519 8.58684 15.8306 8.57959C15.8093 8.57959 15.7736 8.59377 15.7381 8.60121C15.7093 8.60814 15.6669 8.59377 15.6453 8.61506C15.6171 8.63638 15.5457 8.70063 15.5457 8.70063C15.5457 8.70063 15.503 8.7361 15.4958 8.76454C15.4817 8.80004 15.4889 8.82892 15.4604 8.85714C15.4388 8.88591 15.3964 8.90724 15.382 8.90724C15.3679 8.90724 15.3039 8.89998 15.261 8.87847C15.2183 8.85714 15.2253 8.85714 15.1754 8.86462C15.1256 8.86462 15.0901 8.86462 15.0688 8.88591C15.0403 8.91416 14.9976 8.91416 14.9976 8.92141C14.9904 8.93579 14.9547 8.92142 14.9406 8.89998C14.9265 8.88591 14.9193 8.87847 14.8907 8.87847C14.8694 8.87154 14.8409 8.87847 14.8268 8.87154C14.8124 8.86462 14.791 8.85022 14.7769 8.8433C14.7556 8.8433 14.7484 8.82892 14.7127 8.83607C14.6844 8.85022 14.67 8.85022 14.6559 8.85714C14.6343 8.86462 14.613 8.87154 14.6061 8.87847C14.5989 8.87847 14.5277 8.89998 14.5277 8.89998L14.4779 8.87847C14.4779 8.87847 14.4139 8.89998 14.4067 8.89998C14.3995 8.90724 14.3352 8.96403 14.3211 8.9784C14.3139 8.99258 14.2857 9.0565 14.2857 9.0565C14.2857 9.0565 14.2857 9.12077 14.2857 9.14921C14.2857 9.17776 14.3424 9.2631 14.3424 9.32705C14.3424 9.38437 14.3782 9.48378 14.3782 9.48378C14.3782 9.48378 14.371 9.55495 14.3496 9.59759C14.3283 9.64052 14.2857 9.7898 14.2715 9.80417C14.2571 9.81824 14.2643 9.90414 14.2571 9.96094C14.2499 10.0179 14.2715 10.103 14.2715 10.103C14.2715 10.103 14.2214 10.1387 14.2785 10.2102C14.3139 10.26 14.3496 10.3026 14.3782 10.3312" fill="#BAFF6A"/>
<path fill-rule="evenodd" clip-rule="evenodd" d="M9.50799 7.94578C9.50799 7.94578 9.48667 7.83914 9.50799 7.82508C9.52932 7.81057 9.56504 7.7752 9.57224 7.73918C9.58636 7.69656 9.57916 7.60407 9.57916 7.60407L9.45842 7.37639L9.43682 7.24095C9.43682 7.24095 9.28729 7.28389 9.30889 7.29804C9.33021 7.31211 9.24464 7.54004 9.23744 7.57552C9.23052 7.61121 9.22332 7.76069 9.22332 7.81056C9.2164 7.86769 9.2092 8.04572 9.2092 8.04572L9.23052 8.18776C9.23052 8.18776 9.31582 8.28025 9.35154 8.20908C9.39418 8.13822 9.47255 8.09529 9.49387 8.06705C9.50799 8.03135 9.50799 7.94578 9.50799 7.94578" fill="#BAFF6A"/>
<path fill-rule="evenodd" clip-rule="evenodd" d="M14.6559 3.48155L14.5418 3.63109L14.3353 3.76678L14.1361 3.86619C14.1361 3.86619 14.0578 3.95868 14.2142 4.02265C14.3782 4.0941 14.4707 4.15086 14.4707 4.15086C14.4707 4.15086 14.4992 4.11542 14.5349 3.99441C14.5704 3.88059 14.5917 3.80942 14.5917 3.80942C14.5917 3.80942 14.6415 3.7881 14.6914 3.70946C14.7412 3.62416 14.8268 3.51727 14.8268 3.51727L14.6559 3.48155" fill="#BAFF6A"/>
<path fill-rule="evenodd" clip-rule="evenodd" d="M14.67 3.92323L14.6274 4.02985L14.6343 4.09409L14.6986 4.20791L14.7697 4.22203C14.7697 4.22203 14.7484 4.14394 14.7841 4.10822C14.8268 4.07277 14.8409 4.02265 14.8409 4.00133C14.8409 3.98693 14.7982 3.87339 14.7982 3.87339L14.7556 3.83767L14.67 3.86619V3.92323" fill="#BAFF6A"/>
<path fill-rule="evenodd" clip-rule="evenodd" d="M12.8546 2.49213C11.0817 2.28555 9.3089 3.23233 8.53989 4.94145C8.51857 4.99824 8.49697 5.04778 8.47565 5.09796L8.50417 5.11928L8.7606 4.8985C8.7606 4.8985 8.86029 4.74901 8.93865 4.67815C9.02394 4.60696 9.16628 4.44302 9.16628 4.44302C9.16628 4.44302 9.40138 4.36465 9.41551 4.34333C9.42271 4.32173 9.60076 4.25084 9.64341 4.26469C9.67913 4.28601 10.0065 4.43582 10.0065 4.43582L10.2344 4.4217C10.2344 4.4217 10.4764 4.47127 10.5049 4.45714C10.5334 4.43582 10.74 4.34333 10.74 4.34333C10.74 4.34333 10.9034 4.25776 10.7755 4.39318C10.6544 4.52831 10.6118 4.49979 10.5476 4.57123C10.4908 4.6424 10.2485 4.60696 10.2485 4.60696L10.2202 4.51419C10.2202 4.51419 9.99233 4.57123 9.96381 4.57788C9.93528 4.58563 9.88544 4.68507 9.88544 4.72769C9.88544 4.77064 9.86411 4.92012 9.93528 4.99824C10.0065 5.06941 10.0707 5.16916 10.092 5.1976C10.1061 5.22615 10.2629 5.44682 10.2842 5.48944C10.3055 5.53931 10.4337 5.66035 10.4337 5.66035C10.4337 5.66035 10.6616 5.54624 10.7043 5.48944C10.7469 5.4399 10.804 5.35411 10.861 5.29009C10.9178 5.21922 11.0887 5.06941 11.0887 5.06941C11.0887 5.06941 11.2454 4.95529 11.3022 4.92012C11.3592 4.88443 11.4802 4.83458 11.4802 4.83458C11.4802 4.83458 11.5445 4.79886 11.4589 4.96966C11.3808 5.13366 11.1883 5.31138 11.1598 5.33996C11.1244 5.36851 10.9604 5.50392 10.9463 5.47504C10.9322 5.44682 10.7683 5.55368 10.7256 5.6174C10.683 5.68198 10.5193 5.74592 10.4977 5.76007C10.4695 5.78139 10.3626 5.85256 10.256 5.74592C10.1491 5.63903 10.035 5.56753 10.035 5.56753L9.99953 5.81709L10.0137 6.2158L10.1917 6.70713C10.1917 6.70713 10.2485 6.94163 10.213 6.99205C10.1773 7.0419 10.0635 7.21251 10.0137 7.30519C9.95661 7.39768 9.87131 7.5686 9.87131 7.5686L9.97793 7.91757L10.0209 8.0385L9.89956 8.28773L9.90676 8.45864C9.90676 8.45864 9.94968 8.54366 9.94968 8.5655C9.94968 8.59375 9.89956 8.77178 9.89956 8.77178L9.97101 9.01386L10.035 9.19192C10.035 9.19192 10.1773 9.32703 10.2058 9.33417C10.2344 9.33417 10.2701 9.39128 10.3196 9.4126C10.3767 9.43389 10.4124 9.52638 10.4836 9.49069C10.5548 9.45522 10.6118 9.31285 10.6118 9.31285C10.6118 9.31285 10.7115 9.23454 10.8181 9.12075C10.925 8.99971 10.9391 8.99257 11.0604 8.84328C11.1811 8.69369 11.2382 8.72191 11.3022 8.57243C11.3664 8.42295 11.4589 8.25203 11.4589 8.25203C11.4589 8.25203 11.4661 8.07397 11.5231 7.96711C11.5871 7.86044 11.7225 7.71096 11.7294 7.68238C11.7366 7.66109 11.9147 7.56168 11.9147 7.56168L12.0642 7.39024L12.1567 7.13439C12.1567 7.13439 12.2991 7.11276 12.3489 7.14131C12.406 7.16989 12.527 7.10562 12.5555 7.10562C12.584 7.10562 12.7903 7.29082 12.8972 7.3407C12.9969 7.39024 13.0753 7.62539 13.232 7.54005C13.3813 7.45448 13.5308 7.35507 13.5734 7.36199C13.6164 7.36891 13.7518 7.2482 13.7518 7.2482C13.7518 7.2482 13.9224 7.16264 14.0007 6.99205C14.0719 6.82092 14.1148 6.71425 14.1148 6.71425L14.1716 6.41496L14.1433 6.13718C14.1433 6.13718 14.0292 6.04469 14.0434 5.94528C14.0647 5.83841 14.0932 5.6889 14.0932 5.6889L14.0079 5.49669V5.39003L13.9794 5.31138L13.9224 5.33996L13.8085 5.28294L13.659 5.19045L13.5806 5.08348L13.4311 4.97692L13.3599 4.94837L13.2674 4.90575L13.1891 4.85588L13.1392 4.83458L13.0894 4.84151C13.0894 4.84151 13.0825 4.9129 13.0609 4.93397C13.0395 4.95529 13.0539 5.04778 13.0323 5.06215C13.0038 5.07633 12.89 5.09796 12.8756 5.09796C12.8615 5.09796 12.8119 5.05523 12.7477 5.07633C12.6909 5.09796 12.7122 5.11928 12.5981 5.11928C12.484 5.11928 12.3987 5.15498 12.3987 5.08348C12.3987 5.01261 12.4201 5.09073 12.4059 4.99099C12.3915 4.88443 12.4273 4.87028 12.3204 4.85588C12.2207 4.84896 12.1639 4.87028 12.0285 4.82744C11.8934 4.77757 11.7865 4.72044 11.758 4.71332C11.7225 4.7064 11.5802 4.64933 11.5802 4.64933L11.5727 4.48567L11.6228 4.31481L11.6513 4.24336L11.936 4.34333L11.9643 4.40038C11.9643 4.40038 12.0285 4.44302 12.0925 4.4073C12.1639 4.37878 12.1994 4.33613 12.1994 4.33613L12.2636 4.23644V4.12263C12.2636 4.12263 12.3987 4.18659 12.4273 4.18659C12.4486 4.18659 12.5126 4.13675 12.4912 4.20792C12.4627 4.28601 12.363 4.43582 12.363 4.43582C12.363 4.43582 12.363 4.52831 12.4131 4.52831C12.4627 4.53551 12.4417 4.628 12.527 4.50671C12.6123 4.37878 12.648 4.39318 12.6837 4.37185C12.7191 4.35053 12.7903 4.24336 12.7903 4.24336C12.7903 4.24336 12.9542 4.22924 13.011 4.19379C13.0681 4.16527 13.0894 4.12263 13.1606 4.12263C13.2389 4.11543 13.253 4.12263 13.253 4.12263C13.253 4.12263 13.3101 4.22204 13.2816 4.25084C13.2461 4.27908 13.1038 4.34333 13.1038 4.34333L12.8402 4.38598C12.8402 4.38598 12.7831 4.4217 12.8047 4.42862C12.8332 4.44302 12.89 4.43582 12.89 4.43582C12.89 4.43582 12.9113 4.47127 12.8828 4.49287C12.8615 4.50671 12.8332 4.52111 12.826 4.52831C12.8188 4.53551 12.8332 4.60696 12.8332 4.60696L12.8402 4.66378C12.8402 4.66378 12.8615 4.69948 12.8756 4.65653C12.89 4.60696 12.89 4.55656 12.89 4.55656L12.9542 4.49979C12.9542 4.49979 13.011 4.47847 13.0323 4.46434C13.0467 4.45714 13.0825 4.47847 13.1179 4.46434C13.1605 4.44994 13.2035 4.47127 13.2602 4.42862C13.3173 4.39317 13.3101 4.34333 13.353 4.33613C13.4026 4.32921 13.4026 4.32921 13.4026 4.32921L13.474 4.34333C13.474 4.34333 13.4881 4.37878 13.4881 4.38598C13.4881 4.39318 13.5449 4.44994 13.5449 4.44994C13.5449 4.44994 13.5308 4.47847 13.5449 4.48567C13.5521 4.49287 13.5665 4.48567 13.6022 4.48567C13.6449 4.48567 13.6875 4.51419 13.6875 4.51419C13.6875 4.51419 13.7017 4.56376 13.7161 4.56376C13.7233 4.57123 13.7232 4.59948 13.7089 4.60696C13.6875 4.6208 13.6659 4.6208 13.6947 4.6424C13.716 4.67059 13.7446 4.72044 13.7518 4.74176C13.7587 4.75624 13.7728 4.80578 13.78 4.82018C13.7941 4.84151 13.8085 4.8985 13.8085 4.8985L13.7728 4.95529L13.7872 5.04778L13.8299 5.12673C13.8299 5.12673 13.7872 5.14772 13.844 5.16916C13.901 5.19045 13.9722 5.23307 13.9722 5.23307C13.9722 5.23307 13.9437 5.27602 13.9794 5.27602C14.0151 5.27602 14.0719 5.26162 14.0719 5.26162L14.1148 5.2547C14.1148 5.2547 14.1076 5.28294 14.1575 5.29731C14.2142 5.30424 14.2142 5.33996 14.2571 5.27602C14.2926 5.20485 14.2716 5.23307 14.2926 5.18353C14.3211 5.13365 14.3496 4.99824 14.3568 4.98406C14.3638 4.96966 14.428 4.8985 14.428 4.8985C14.428 4.8985 14.428 4.87028 14.4208 4.84151C14.4139 4.80578 14.3496 4.74902 14.3211 4.74176C14.2926 4.73495 14.1857 4.7064 14.1361 4.69947C14.0863 4.692 14.0506 4.72769 14.022 4.67059C13.9866 4.6208 14.0079 4.57123 14.0079 4.57123L14.0719 4.45714C14.0719 4.45714 14.1004 4.47847 14.1503 4.44302C14.1929 4.40038 14.2358 4.37878 14.2358 4.37878C14.2358 4.37878 14.2998 4.40038 14.3283 4.39318C14.3568 4.38598 14.3638 4.33613 14.3638 4.33613C14.3638 4.33613 14.2571 4.25084 14.2571 4.26469C14.25 4.27188 14.2001 4.21512 14.2001 4.21512L14.2427 4.15087C14.2427 4.15087 14.1857 4.15835 14.1647 4.14395C14.1503 4.12955 14.1289 4.11543 14.1076 4.0941C14.0932 4.07278 14.0863 4.03678 14.0863 4.03678L14.0932 3.95869L14.0434 3.91604L13.9722 3.859V3.76678L13.9152 3.68094L13.8371 3.64549L13.7872 3.59565L13.8013 3.52448C13.8013 3.52448 13.8371 3.38214 13.8584 3.38907C13.8869 3.39627 13.9224 3.3251 13.9224 3.3251L13.8797 3.20381C13.8797 3.20381 13.7941 3.25393 13.7941 3.28218C13.7941 3.31098 13.8157 3.35362 13.78 3.36775C13.7518 3.38215 13.6731 3.42479 13.6731 3.42479L13.5023 3.41759C13.5023 3.41759 13.4311 3.40347 13.3885 3.35362C13.3458 3.30378 13.296 3.3323 13.2602 3.25393C13.2248 3.18249 13.2248 3.16837 13.2248 3.13264C13.2248 3.09748 13.2104 2.99058 13.2035 2.93354C13.1963 2.88369 13.0966 2.89061 13.0966 2.89061L13.0894 2.82665C13.0894 2.82665 13.1251 2.76988 13.1392 2.74136C13.1464 2.71284 13.0894 2.64859 13.0681 2.64139C13.0539 2.63446 12.9257 2.5777 12.9257 2.5777L12.8615 2.49905L12.8546 2.49213" fill="#BAFF6A"/>
<path fill-rule="evenodd" clip-rule="evenodd" d="M14.0791 2.83384C14.0079 2.79812 13.9368 2.76987 13.8656 2.74135L13.6236 2.65578C13.6236 2.65578 13.5593 2.72002 13.4524 2.75547C13.353 2.79812 13.5095 2.92633 13.5095 2.92633C13.5095 2.92633 13.4812 3.01882 13.474 3.13264C13.4668 3.25393 13.5593 3.23233 13.5593 3.23233C13.5593 3.23233 13.6518 3.28217 13.6518 3.25392C13.6518 3.22512 13.7017 3.18248 13.7233 3.16836C13.7374 3.15423 13.8086 3.09747 13.844 3.06174C13.8728 3.01882 13.9296 3.12571 13.9296 3.12571C13.9296 3.12571 13.9722 3.16116 14.1004 3.26112C14.2286 3.36774 14.1503 3.22513 14.1503 3.22513C14.1503 3.22513 14.2286 3.08999 14.25 3.07587C14.2644 3.06867 14.2857 2.99058 14.2998 2.94045C14.2286 2.89781 14.1503 2.86236 14.0791 2.83384" fill="#BAFF6A"/>
<path fill-rule="evenodd" clip-rule="evenodd" d="M12.3561 11.0999C11.7366 11.0999 11.1385 10.9719 10.5761 10.7226L10.1133 10.4807C9.95659 10.3951 9.87851 10.338 9.76442 10.2528L9.51519 10.096C9.48667 10.0891 9.45122 10.0816 9.4227 10.0816C9.29448 10.0816 9.19479 10.1528 9.19479 10.1603C9.0951 10.2528 9.25876 10.4452 9.26596 10.4452C9.99232 11.0644 10.9535 11.4917 11.8862 11.6196L11.9573 11.6269L11.9715 12.7802L11.2027 12.9582C10.8751 13.0436 10.6899 13.1009 10.5905 13.1363C10.6331 13.1435 10.6899 13.1435 10.7682 13.1435C10.8965 13.1435 11.0105 13.1363 11.0105 13.1363L13.7518 13.1292C14.0719 13.1292 14.2571 13.115 14.3709 13.1078C14.2142 13.0577 13.9722 13.0081 13.7587 12.9652L12.7191 12.7661V12.6949C12.7191 12.6949 12.7263 12.1466 12.7263 11.7194V11.6409L12.8047 11.634C15.2895 11.3563 17.3968 9.07089 17.3968 6.63564C17.3968 4.59948 15.9657 2.69844 13.9223 2.0222C13.7941 1.98676 13.7016 1.99368 13.6518 2.04353C13.6022 2.09337 13.595 2.17866 13.595 2.20746C13.595 2.39937 13.6659 2.45641 13.7088 2.47773L14.0292 2.60595C14.2214 2.69152 14.4067 2.7768 14.4067 2.7768C14.428 2.7912 14.791 2.99059 14.9691 3.13265C16.1366 3.99442 16.8344 5.30424 16.8344 6.63564C16.8344 9.05649 14.7841 11.0999 12.3561 11.0999" fill="#100F0D"/>
</svg>
