<svg width="24" height="24" viewBox="0 0 24 24" fill="none" xmlns="http://www.w3.org/2000/svg">
<path fill-rule="evenodd" clip-rule="evenodd" d="M13.6645 4.36038C10.2021 2.81079 6.15029 4.36038 4.60099 7.82283C3.05168 11.2782 4.60099 15.3374 8.06316 16.8867C11.5188 18.4289 15.578 16.8793 17.1276 13.4242C18.6695 9.96883 17.1202 5.90968 13.6645 4.36038Z" fill="#6AB2C0"/>
<path fill-rule="evenodd" clip-rule="evenodd" d="M14.1594 16.6391C15.2942 16.0212 16.2618 15.0757 16.9091 13.8605L16.8293 13.8679L16.7858 13.9188L16.7198 13.8896C16.7198 13.8896 16.6763 13.897 16.6545 13.8534C16.6327 13.8096 16.6689 13.8096 16.6183 13.7878C16.5674 13.7734 16.5744 13.7807 16.5382 13.7807C16.502 13.7734 16.4361 13.8025 16.3854 13.8096C16.3345 13.8243 16.2689 13.7951 16.2327 13.8314C16.1888 13.8678 16.0654 13.9771 16.0654 13.9771C16.0654 13.9771 15.9998 14.028 15.9851 14.0786C15.9636 14.1296 15.9707 14.1731 15.9342 14.2243C15.8906 14.2679 15.8252 14.3118 15.8035 14.3118C15.7817 14.3118 15.6795 14.2971 15.5997 14.2608C15.527 14.2243 15.5415 14.2243 15.4617 14.2317C15.3816 14.2391 15.3307 14.2391 15.2871 14.2753C15.2506 14.3118 15.1779 14.3188 15.1708 14.3335C15.1561 14.3553 15.0978 14.3335 15.0761 14.3044C15.054 14.2753 15.0469 14.2608 15.0033 14.2608C14.9595 14.2538 14.9088 14.2538 14.8939 14.2461C14.8724 14.2317 14.8359 14.217 14.8067 14.2099C14.7779 14.2026 14.7561 14.1808 14.7122 14.1952C14.6616 14.2099 14.6398 14.217 14.6104 14.2243C14.5815 14.2317 14.545 14.2538 14.5303 14.2538C14.5159 14.2608 14.4066 14.3044 14.4066 14.3044L14.3195 14.2608C14.3195 14.2608 14.2174 14.29 14.2032 14.2971C14.1885 14.3044 14.0867 14.4063 14.0719 14.428C14.0504 14.4498 13.9992 14.559 13.9992 14.559C13.9992 14.559 13.9992 14.6606 14.0066 14.7042C14.0066 14.7551 14.1011 14.8935 14.1011 14.9953C14.094 15.0901 14.1594 15.257 14.1594 15.257C14.1594 15.257 14.1449 15.3665 14.1087 15.4392C14.0796 15.5119 14.0139 15.7592 13.9848 15.781C13.9559 15.7957 13.9701 15.9338 13.9559 16.0283C13.9412 16.1301 13.9922 16.2685 13.9922 16.2685C13.9922 16.2685 13.8977 16.3268 13.9922 16.443C14.0504 16.5158 14.1158 16.5958 14.1594 16.6391" fill="#BAFF6A"/>
<path fill-rule="evenodd" clip-rule="evenodd" d="M6.18683 12.7333C6.18683 12.7333 6.15033 12.5582 6.17919 12.5364C6.21597 12.5149 6.2816 12.4566 6.29575 12.3913C6.31046 12.3259 6.30311 12.1728 6.30311 12.1728L6.10647 11.8093L6.07054 11.5767C6.07054 11.5767 5.83034 11.6494 5.8592 11.6712C5.8957 11.6927 5.75762 12.0783 5.74291 12.1296C5.72848 12.1876 5.72848 12.4348 5.71405 12.522C5.70669 12.6023 5.69226 12.9005 5.69226 12.9005L5.73583 13.1257C5.73583 13.1257 5.87391 13.2785 5.9322 13.1622C5.99783 13.046 6.12854 12.9806 6.15768 12.9297C6.18682 12.8787 6.18683 12.7333 6.18683 12.7333" fill="#BAFF6A"/>
<path fill-rule="evenodd" clip-rule="evenodd" d="M14.6103 5.42248L14.4284 5.66976L14.0866 5.89525L13.7666 6.0551C13.7666 6.0551 13.6283 6.20788 13.8976 6.31709C14.1593 6.4263 14.3048 6.5208 14.3048 6.5208C14.3048 6.5208 14.3557 6.46251 14.414 6.26616C14.4723 6.07717 14.5085 5.96061 14.5085 5.96061C14.5085 5.96061 14.5815 5.93175 14.6686 5.79339C14.756 5.6624 14.8938 5.48755 14.8938 5.48755L14.6103 5.42248" fill="#BAFF6A"/>
<path fill-rule="evenodd" clip-rule="evenodd" d="M14.6322 6.1499L14.5668 6.32418L14.5815 6.43367L14.6834 6.6156L14.7923 6.64445C14.7923 6.64445 14.7631 6.51346 14.8288 6.45518C14.8939 6.39718 14.9159 6.30975 14.9159 6.28061C14.9159 6.25882 14.8506 6.07011 14.8506 6.07011L14.7779 6.00419L14.6398 6.05512C14.6398 6.05512 14.6322 6.15697 14.6322 6.1499" fill="#BAFF6A"/>
<path fill-rule="evenodd" clip-rule="evenodd" d="M11.6643 3.80754C8.76173 3.46577 5.85919 5.01507 4.60101 7.82283C4.56451 7.9029 4.52801 7.99032 4.49152 8.07746L4.54273 8.11368L4.96458 7.74305C4.96458 7.74305 5.125 7.49577 5.25571 7.3792C5.39406 7.26292 5.62662 7.008 5.62662 7.008C5.62662 7.008 6.01196 6.87022 6.03403 6.83344C6.04846 6.79722 6.3396 6.68801 6.40496 6.71716C6.46296 6.7463 6.99401 6.98622 6.99401 6.98622L7.37256 6.96472C7.37256 6.96472 7.77233 7.05186 7.82354 7.01564C7.86711 6.98622 8.20182 6.84079 8.20182 6.84079C8.20182 6.84079 8.47088 6.70272 8.26718 6.92114C8.06319 7.13928 7.99076 7.09543 7.89626 7.21199C7.80177 7.33535 7.39434 7.26292 7.39434 7.26292L7.35077 7.11721C7.35077 7.11721 6.9793 7.21199 6.93601 7.22642C6.88509 7.24085 6.79793 7.39363 6.79793 7.46634C6.80501 7.53906 6.76144 7.78662 6.88508 7.9029C7.00136 8.02682 7.11057 8.18639 7.13971 8.23053C7.16857 8.28117 7.42349 8.63766 7.45235 8.71744C7.48885 8.79044 7.69962 8.99415 7.69962 8.99415C7.69962 8.99415 8.0779 8.80515 8.14382 8.71744C8.21625 8.63059 8.31075 8.49195 8.40553 8.38303C8.49267 8.2741 8.76937 8.02682 8.76937 8.02682C8.76937 8.02682 9.03108 7.83755 9.12529 7.77926C9.22007 7.72126 9.40906 7.64119 9.40906 7.64119C9.40906 7.64119 9.51855 7.58263 9.3802 7.85933C9.24949 8.13575 8.93658 8.4266 8.88537 8.47017C8.83445 8.51402 8.55802 8.73923 8.53623 8.68859C8.51445 8.64473 8.25246 8.81223 8.18003 8.92144C8.10732 9.03036 7.84533 9.13222 7.80176 9.16164C7.7579 9.18343 7.59099 9.30678 7.40878 9.13957C7.23422 8.96501 7.04522 8.84137 7.04522 8.84137L6.98693 9.2485L7.009 9.90347L7.29985 10.7109C7.29985 10.7109 7.39434 11.0892 7.33606 11.169C7.27778 11.2564 7.09614 11.5328 7.009 11.6853C6.92864 11.8384 6.77615 12.1148 6.77615 12.1148L6.9578 12.6821L7.03078 12.8932L6.83416 13.2932L6.84151 13.577C6.84151 13.577 6.90715 13.708 6.90715 13.7516C6.90715 13.7878 6.82679 14.0933 6.82679 14.0933L6.94309 14.479L7.04522 14.7772C7.04522 14.7772 7.28513 14.9953 7.32899 15.0027C7.37963 15.0097 7.43056 15.0972 7.51799 15.1407C7.60513 15.1772 7.66341 15.3229 7.77969 15.2646C7.89626 15.199 7.99076 14.9735 7.99076 14.9735C7.99076 14.9735 8.15796 14.8499 8.33281 14.6535C8.50738 14.4569 8.52916 14.4498 8.73287 14.2025C8.92922 13.9553 9.01665 14.0062 9.12529 13.766C9.22771 13.5187 9.38728 13.2423 9.38728 13.2423C9.38728 13.2423 9.39492 12.9514 9.48913 12.7692C9.59127 12.595 9.81676 12.355 9.82384 12.3112C9.83855 12.2673 10.1223 12.1001 10.1223 12.1001L10.3767 11.8311L10.5221 11.4092C10.5221 11.4092 10.7549 11.3727 10.8426 11.4236C10.9295 11.4672 11.1261 11.3656 11.1697 11.3583C11.2133 11.3583 11.5551 11.6565 11.7296 11.7436C11.8971 11.8311 12.0281 12.2164 12.2754 12.0713C12.53 11.9326 12.77 11.7657 12.8356 11.7801C12.908 11.7948 13.1335 11.5908 13.1335 11.5908C13.1335 11.5908 13.4102 11.4601 13.5336 11.1764C13.6575 10.8926 13.7302 10.7109 13.7302 10.7109L13.825 10.2308L13.7738 9.77248C13.7738 9.77248 13.5848 9.62706 13.6139 9.45956C13.6431 9.285 13.694 9.03772 13.694 9.03772L13.5559 8.73216L13.5486 8.55024L13.5047 8.41924L13.4102 8.47017L13.228 8.38303L12.9807 8.22289L12.85 8.04833L12.6025 7.87376L12.4865 7.82283L12.3334 7.75748L12.21 7.68476L12.137 7.64119L12.0499 7.65534C12.0499 7.65534 12.0425 7.7719 11.999 7.8084C11.9628 7.84462 11.9916 7.99032 11.9481 8.01211C11.9118 8.04125 11.7226 8.07011 11.7008 8.07746C11.6716 8.07746 11.5916 8.00504 11.4971 8.04125C11.3952 8.07011 11.4317 8.11368 11.2424 8.11368C11.0532 8.11368 10.9224 8.16461 10.9224 8.04833C10.9151 7.93912 10.9513 8.05568 10.9295 7.89554C10.9077 7.72834 10.966 7.69948 10.7912 7.67713C10.6242 7.66298 10.5368 7.69948 10.3116 7.62648C10.0932 7.55377 9.91834 7.4522 9.86741 7.43748C9.81677 7.42306 9.57655 7.33535 9.57655 7.33535L9.56213 7.07364L9.64927 6.79722L9.7002 6.67358L10.1656 6.84079L10.2092 6.93529C10.2092 6.93529 10.304 7.00093 10.4205 6.95C10.5295 6.89908 10.5951 6.82636 10.5951 6.82636L10.6967 6.66623V6.46988C10.6967 6.46988 10.9224 6.57909 10.9587 6.57909C11.0022 6.58616 11.1041 6.49874 11.0605 6.62266C11.024 6.73894 10.8642 6.99357 10.8642 6.99357C10.8642 6.99357 10.8642 7.13928 10.9369 7.14607C11.0169 7.15371 10.9878 7.30649 11.1332 7.1025C11.2713 6.89908 11.3296 6.91351 11.3808 6.88465C11.4388 6.84815 11.5624 6.67358 11.5624 6.67358C11.5624 6.67358 11.8241 6.6518 11.9189 6.60116C12.0134 6.54966 12.0425 6.48459 12.1662 6.46988C12.2972 6.46252 12.3116 6.47695 12.3116 6.47695C12.3116 6.47695 12.4135 6.63737 12.3628 6.68801C12.3116 6.73187 12.0714 6.83344 12.0714 6.83344L11.6428 6.90643C11.6428 6.90643 11.5403 6.96472 11.5842 6.97915C11.6281 7.00093 11.7226 6.98622 11.7226 6.98622C11.7226 6.98622 11.7517 7.05186 11.7155 7.08072C11.6716 7.11014 11.6348 7.12429 11.6207 7.13928C11.6133 7.14607 11.6281 7.26999 11.6281 7.26999L11.6428 7.35742C11.6428 7.35742 11.6716 7.42306 11.6937 7.35006C11.7155 7.27735 11.7155 7.19021 11.7155 7.19021L11.8241 7.09543C11.8241 7.09543 11.9189 7.05186 11.9481 7.0445C11.9845 7.02979 12.0355 7.05186 12.1008 7.03743C12.1662 7.01564 12.2318 7.0445 12.3263 6.97915C12.4208 6.92115 12.4061 6.84079 12.4791 6.82636C12.5592 6.81165 12.5592 6.81165 12.5592 6.81165L12.6755 6.83344C12.6755 6.83344 12.697 6.89908 12.697 6.9135C12.697 6.92114 12.7994 7.008 12.7994 7.008C12.7994 7.008 12.7776 7.05921 12.7917 7.07364C12.8064 7.08072 12.8282 7.07364 12.8939 7.07364C12.9589 7.07364 13.0319 7.11014 13.0319 7.11014C13.0319 7.11014 13.0467 7.19728 13.0684 7.20464C13.0902 7.21199 13.0829 7.25557 13.0611 7.26999C13.0319 7.28471 12.9954 7.29178 13.0319 7.32828C13.0684 7.37185 13.1194 7.45927 13.1335 7.48813C13.1482 7.5102 13.17 7.59027 13.1847 7.62648C13.1992 7.65534 13.2209 7.74305 13.2209 7.74305L13.17 7.83754L13.1918 7.99032L13.2574 8.11368C13.2574 8.11368 13.1918 8.15754 13.2866 8.18639C13.3737 8.21582 13.4974 8.29589 13.4974 8.29589C13.4974 8.29589 13.4538 8.3686 13.5047 8.3686C13.563 8.3686 13.6575 8.34681 13.6575 8.34681L13.7302 8.3321C13.7302 8.3321 13.7084 8.38303 13.8029 8.39746C13.8977 8.41217 13.8903 8.47017 13.956 8.36096C14.021 8.25231 13.9848 8.29588 14.0211 8.20818C14.0649 8.12839 14.1088 7.91026 14.1229 7.88847C14.1376 7.8664 14.2395 7.74305 14.2395 7.74305C14.2395 7.74305 14.2468 7.69948 14.2321 7.64827C14.2174 7.59734 14.1088 7.5102 14.0649 7.49577C14.021 7.48106 13.8394 7.43013 13.7591 7.41542C13.6863 7.40806 13.6284 7.46635 13.5701 7.3792C13.5194 7.29178 13.5486 7.20464 13.5486 7.20464L13.6575 7.02272C13.6575 7.02272 13.7011 7.05921 13.7808 6.99357C13.8615 6.93529 13.9265 6.89201 13.9265 6.89201C13.9265 6.89201 14.021 6.93529 14.072 6.92114C14.1158 6.91351 14.1376 6.82636 14.1376 6.82636C14.1376 6.82636 13.956 6.68801 13.956 6.71008C13.956 6.72451 13.8686 6.63002 13.8686 6.63002L13.9339 6.5208C13.9339 6.5208 13.8394 6.53523 13.8103 6.51345C13.7885 6.48459 13.7449 6.46252 13.7228 6.42631C13.694 6.39716 13.6864 6.33181 13.6864 6.33181L13.694 6.20789L13.6066 6.14253L13.4974 6.04803L13.49 5.8879L13.4029 5.74955L13.2792 5.69155L13.1847 5.61884L13.2139 5.49519C13.2139 5.49519 13.2721 5.26235 13.3157 5.27706C13.3519 5.29149 13.4102 5.16757 13.4102 5.16757L13.3375 4.96414C13.3375 4.96414 13.2065 5.05129 13.1991 5.10221C13.1991 5.15342 13.2356 5.21849 13.1847 5.24056C13.1264 5.2697 13.0028 5.33506 13.0028 5.33506L12.7193 5.32799C12.7193 5.32799 12.6101 5.29885 12.5374 5.21849C12.4647 5.13871 12.3843 5.18228 12.3263 5.05892C12.2683 4.935 12.2683 4.92029 12.2683 4.86201C12.2683 4.79693 12.2465 4.62237 12.2389 4.53494C12.2245 4.44752 12.0643 4.46223 12.0643 4.46223L12.0425 4.35274C12.0425 4.35274 12.1079 4.25852 12.1297 4.21495C12.1444 4.16402 12.0425 4.06189 12.0208 4.04746C11.9916 4.04011 11.7806 3.95296 11.7806 3.95296L11.6716 3.81461L11.6643 3.80754" fill="#BAFF6A"/>
<path fill-rule="evenodd" clip-rule="evenodd" d="M13.6646 4.36039C13.5486 4.30946 13.432 4.25853 13.3157 4.21496L12.9154 4.07662C12.9154 4.07662 12.8209 4.18582 12.6463 4.24411C12.4791 4.30211 12.7338 4.51317 12.7338 4.51317C12.7338 4.51317 12.697 4.66567 12.6828 4.85495C12.6681 5.0513 12.8209 5.01508 12.8209 5.01508C12.8209 5.01508 12.974 5.09487 12.974 5.0513C12.9666 5.00065 13.0538 4.93501 13.0829 4.91323C13.112 4.89144 13.228 4.80402 13.2792 4.73866C13.3375 4.67302 13.4173 4.84759 13.4173 4.84759C13.4173 4.84759 13.49 4.90587 13.7011 5.07308C13.9195 5.24057 13.7885 5.01508 13.7885 5.01508C13.7885 5.01508 13.9195 4.78223 13.956 4.76045C13.9775 4.75309 14.0066 4.62238 14.0284 4.53496C13.9121 4.47696 13.7885 4.41839 13.6646 4.36039" fill="#BAFF6A"/>
<path fill-rule="evenodd" clip-rule="evenodd" d="M10.8426 17.8978C9.83118 17.8978 8.84915 17.6868 7.93275 17.2797L7.1762 16.8867C6.92128 16.7486 6.79057 16.6538 6.60865 16.5158L6.20124 16.2538C6.15031 16.2393 6.09939 16.2323 6.04846 16.2323C5.8374 16.2323 5.67018 16.3483 5.67018 16.3556C5.51033 16.5158 5.78675 16.8213 5.78675 16.8284C6.97929 17.8396 8.55094 18.5452 10.0785 18.7489L10.2021 18.7633L10.2168 20.6473L8.95836 20.9458C8.42731 21.0768 8.1291 21.1713 7.95454 21.2367C8.02725 21.244 8.12174 21.244 8.24538 21.244C8.45644 21.244 8.63837 21.2367 8.63837 21.2367L13.1411 21.2149C13.6575 21.2149 13.963 21.2002 14.145 21.186C13.8903 21.1057 13.49 21.0188 13.1411 20.9602L11.4388 20.6258V20.5095C11.4388 20.5095 11.4535 19.607 11.4535 18.909V18.7851L11.5768 18.7707C15.6507 18.32 19.0987 14.5808 19.0987 10.5944C19.0987 7.25557 16.7634 4.1496 13.4102 3.04364C13.2065 2.978 13.0537 2.98536 12.9666 3.07278C12.8862 3.15285 12.8721 3.29092 12.8791 3.34184C12.8791 3.65476 12.9954 3.75662 13.0611 3.79283L13.5848 3.99682C13.9048 4.1346 14.2032 4.27296 14.2032 4.27296C14.2395 4.29474 14.8359 4.62237 15.1267 4.85494C17.0399 6.25882 18.1823 8.40482 18.1823 10.5944C18.1823 14.5517 14.8212 17.8978 10.8426 17.8978Z" fill="#100F0D"/>
</svg>
