<svg width="24" height="24" viewBox="0 0 24 24" fill="none" xmlns="http://www.w3.org/2000/svg">
<path fill-rule="evenodd" clip-rule="evenodd" d="M6.77851 15.3782V10.3005H4.69537V17.4531C4.69537 18.1279 5.0664 18.676 5.5306 18.676H5.6231C5.67362 18.3218 5.75793 17.9846 5.87603 17.6722L5.96035 17.4445C6.23066 16.7531 6.50032 16.0612 6.77851 15.3782" fill="#A1E0E1"/>
<path fill-rule="evenodd" clip-rule="evenodd" d="M3.93627 5.62784H7.53796V14.5768C7.65606 14.307 7.77416 14.037 7.90013 13.7756L8.06941 13.4213V5.60222H8.47391V4.00001H3V5.60222H3.40483V17.2254C3.40483 17.9928 3.6243 18.6932 3.97006 19.199C4.31583 19.7052 4.79675 20.0257 5.31934 20.0257H5.61491C5.58112 19.7728 5.56406 19.511 5.57259 19.2495H5.31934C4.94011 19.2495 4.59401 19.0222 4.34108 18.6594C4.08782 18.288 3.93627 17.7818 3.93627 17.2254V5.62784Z" fill="#D5D5D5"/>
<path fill-rule="evenodd" clip-rule="evenodd" d="M18.0137 16.1963C16.5208 16.5674 15.0954 16.5253 14.2349 15.9601C13.2058 15.2686 11.3332 15.3948 10.0092 15.5973C9.79829 15.9182 7.57999 19.0133 7.93429 19.0556C11.8394 19.0556 15.7449 19.0556 19.65 19.0556C19.7511 19.0556 19.7767 19.0303 19.7088 18.9458L18.0137 16.1963ZM9.73924 18.5242C9.65493 18.5242 9.59588 18.4569 9.59588 18.3812C9.59588 18.3047 9.65493 18.2375 9.73924 18.2375C9.81502 18.2375 9.8744 18.3047 9.8744 18.3812C9.8744 18.4569 9.81502 18.5242 9.73924 18.5242ZM10.7939 17.0479C10.5236 17.0479 10.2959 16.8206 10.2959 16.5506C10.2959 16.2806 10.5236 16.0612 10.7939 16.0612C11.0636 16.0612 11.2827 16.2806 11.2827 16.5506C11.2827 16.8206 11.0636 17.0479 10.7939 17.0479V17.0479ZM12.0927 17.6046C11.949 17.6046 11.8227 17.4868 11.8227 17.335C11.8227 17.1917 11.949 17.065 12.0927 17.065C12.2446 17.065 12.3624 17.1917 12.3624 17.335C12.3624 17.4868 12.2446 17.6046 12.0927 17.6046ZM13.4672 16.7613C13.3918 16.7613 13.3242 16.7022 13.3242 16.6182C13.3242 16.5421 13.3918 16.483 13.4672 16.483C13.5433 16.483 13.6109 16.5421 13.6109 16.6182C13.6109 16.7022 13.5433 16.7613 13.4672 16.7613V16.7613ZM13.9396 18.6419C13.7543 18.6419 13.6109 18.4907 13.6109 18.3132C13.6109 18.1279 13.7543 17.9845 13.9396 17.9845C14.1171 17.9845 14.2687 18.1279 14.2687 18.3132C14.2687 18.4907 14.1171 18.6419 13.9396 18.6419ZM15.4411 17.9084C15.1708 17.9084 14.9435 17.6889 14.9435 17.4193C14.9435 17.1497 15.1708 16.9301 15.4411 16.9301C15.7111 16.9301 15.9302 17.1497 15.9302 17.4193C15.9302 17.6889 15.7111 17.9084 15.4411 17.9084ZM17.5079 18.4737C17.3389 18.4737 17.2041 18.3385 17.2041 18.1698C17.2041 18.0009 17.3389 17.8664 17.5079 17.8664C17.6762 17.8664 17.8113 18.0009 17.8113 18.1698C17.8113 18.3385 17.6762 18.4737 17.5079 18.4737Z" fill="#F35C4E"/>
<path fill-rule="evenodd" clip-rule="evenodd" d="M12.4637 13.5646C12.776 13.5646 13.0374 13.8261 13.0374 14.1466C13.0374 14.4672 12.776 14.72 12.4637 14.72C12.1431 14.72 11.8817 14.4672 11.8817 14.1466C11.8817 13.8261 12.1431 13.5646 12.4637 13.5646Z" fill="#F35C4E"/>
<path fill-rule="evenodd" clip-rule="evenodd" d="M15.239 13.5394C15.4073 13.5394 15.551 13.6828 15.551 13.8515C15.551 14.0204 15.4073 14.1552 15.239 14.1552C15.0701 14.1552 14.9353 14.0204 14.9353 13.8515C14.9353 13.6828 15.0701 13.5394 15.239 13.5394" fill="#F35C4E"/>
<path fill-rule="evenodd" clip-rule="evenodd" d="M14.0495 11.4812C14.2178 11.4812 14.3615 11.6161 14.3615 11.785C14.3615 11.9536 14.2178 12.0888 14.0495 12.0888C13.8806 12.0888 13.7457 11.9536 13.7457 11.785C13.7457 11.6161 13.8806 11.4812 14.0495 11.4812Z" fill="#F35C4E"/>
<path fill-rule="evenodd" clip-rule="evenodd" d="M12.0671 4.5987H15.5845C15.9135 4.5987 16.1832 4.86869 16.1832 5.20586V9.12813C16.1832 9.46527 15.9135 9.73529 15.5845 9.73529H12.0671C11.7298 9.73529 11.4602 9.46527 11.4602 9.12813V5.20586C11.4602 4.86869 11.7298 4.5987 12.0671 4.5987" fill="#D5D5D5"/>
<path d="M15.9725 8.16652H11.6793C11.6708 9.10249 11.6708 10.2162 11.6875 10.8067C11.7042 11.2874 11.2998 11.8611 10.5324 12.9151C10.2625 13.2946 9.95867 13.6998 9.66342 14.1381C8.77767 15.4453 7.9172 16.9888 7.5547 17.6555L7.45366 17.8327C7.21713 18.2542 7.20893 18.8699 7.4366 19.2576C7.5629 19.4942 7.7571 19.6124 8.00183 19.6124H19.65C19.8944 19.6124 20.0801 19.4942 20.2149 19.2576C20.4429 18.8699 20.4341 18.2542 20.1982 17.8327L20.0968 17.6555C19.7343 16.9888 18.8653 15.4453 17.9881 14.1381C17.6846 13.6998 17.3894 13.2946 17.1197 12.9151C16.3436 11.8611 15.9473 11.2874 15.964 10.8067C15.9807 10.2162 15.9807 9.10249 15.9725 8.16652ZM10.4478 6.47114H17.204C17.3556 6.47114 17.4908 6.53879 17.5918 6.6312C17.6847 6.73293 17.7522 6.86776 17.7522 7.01974V7.61805C17.7522 7.77027 17.6847 7.90509 17.5918 8.00646C17.4908 8.10744 17.3556 8.16652 17.204 8.16652H16.8078C16.816 9.10249 16.816 10.2333 16.7986 10.8402C16.7986 11.0593 17.3556 11.8188 17.7945 12.4177C18.0727 12.7971 18.3762 13.2185 18.6803 13.666C19.5824 15.0068 20.4511 16.5674 20.8307 17.2422L20.932 17.4193C21.3116 18.1027 21.3201 19.0303 20.9402 19.6885C20.6535 20.1772 20.1897 20.4557 19.65 20.4557H8.00183C7.45366 20.4557 6.99766 20.1772 6.71094 19.6885C6.33171 19.0303 6.34024 18.1027 6.7198 17.4193C7.69805 15.6816 8.67664 14.0285 9.8573 12.4177C10.2959 11.8188 10.8444 11.0593 10.8526 10.8402C10.8359 10.2244 10.8359 9.10249 10.8359 8.16652H10.4478C10.2959 8.16652 10.1607 8.10744 10.0597 8.00646C9.95867 7.90509 9.89962 7.77027 9.89962 7.61805V7.01974C9.89962 6.86776 9.95867 6.73293 10.0597 6.6312C10.1607 6.53879 10.2959 6.47114 10.4478 6.47114" fill="#D5D5D5"/>
</svg>
