<svg width="24" height="24" viewBox="0 0 24 24" fill="none" xmlns="http://www.w3.org/2000/svg">
<path fill-rule="evenodd" clip-rule="evenodd" d="M21.3833 10.5126L20.9128 10.6715V15.3509H20.4913V16.6275L21.0837 16.1573L21.6947 16.6275V15.3509H21.3833V10.5126" fill="#FBC50A"/>
<path fill-rule="evenodd" clip-rule="evenodd" d="M20.9128 10.6715L21.3832 10.5126L21.8779 10.3477L21.3832 10.1766L21.1877 10.1155L11.939 7.00001L2 10.3477L5.65939 11.5815L6.03194 11.7039L6.88085 11.997L12.0062 13.6158L17.0826 11.9726V11.9787L18.2066 11.5938L18.2005 11.5815L20.9128 10.6715" fill="#272626"/>
<path fill-rule="evenodd" clip-rule="evenodd" d="M17.3268 14.08C17.3268 13.7992 17.0764 12.9866 17.0094 12.7117C10.8883 14.3 13.68 14.6604 7.63231 12.7483C7.57719 12.9928 7.30847 13.9092 7.30847 14.08C7.30847 14.9109 10.9797 17 12.1159 17C13.2889 17 17.3268 14.8926 17.3268 14.08Z" fill="#272626"/>
</svg>
